<svg xmlns="http://www.w3.org/2000/svg" viewBox="0 0 765.69 864.59"><defs><style>.cls-1{isolation:isolate;}.cls-2{fill:#e4f4fc;}.cls-3{fill:#ba6b4f;}.cls-4,.cls-7{fill:#ecb49f;}.cls-5{fill:#0b1238;}.cls-6{fill:#3d4c66;}.cls-7{mix-blend-mode:multiply;}.cls-8{fill:#fff;}.cls-9{fill:#cce4ff;}.cls-10{fill:#fa7071;}.cls-11{fill:#5c75c3;}.cls-12{fill:#f5b29c;}.cls-13{fill:#403444;}.cls-14{fill:#2e3054;}.cls-15{fill:#f5d9c5;}.cls-16{fill:#5d7e97;}.cls-17{fill:#ff9db0;}.cls-18{fill:#cdd8e4;}</style></defs><g class="cls-1"><g id="Layer_2" data-name="Layer 2"><path class="cls-2" d="M249.3,638.33c-62,27-143.84-11.86-170.2-71.57C66,537.11,68.56,498.75,77,468.09c5.16-18.76,9.54-29.54.53-48.38-13-27.27-37.69-47.2-49.07-75.63-12.3-30.73-12.54-68.38-10-101.07C21.59,201.48,46,159.8,74.36,130.24c17.74-18.47,41.82-43.18,65-52.58,16.41-6.66,29.75-12,45.3-23.2,27.11-19.61,48.77-31,81.67-38.75,34.42-8.16,69.27-12.8,102.6,1.09,34,14.18,71.26,46.07,107.68,51.33,35.22,5.08,72-5.63,107-7.16,52.22-2.28,86.67,16.66,108.33,66,13.42,30.58,21.41,63.7,34,94.76,12.45,30.73,23.65,60.08,31,92.51,6.1,26.75,9.51,54.08,15.42,80.88,6.82,31,14.39,62.59,8,94.44-14,70-73.83,121.79-134.07,152.17-55.56,28-113.36,51.54-175,61.85-36.71,6.14-73.71,8.1-110.8,4.31-29.27-3-57.23-12.93-86.46-15.39Z" transform="translate(-17.16 -7.93)"></path><path class="cls-3" d="M546.27,529.34,523.21,703.65s33.56,111,46.22,156.37c-.38.52-29.64,1.84-28.65,9.5s46.86-1.76,46.86-1.76-14.85-146.94-14.35-164.63,27.31-119,25.82-159S562.72,502.22,546.27,529.34Z" transform="translate(-17.16 -7.93)"></path><path class="cls-4" d="M547.89,310.84c-4.3,5.4-10.29,12.72-15.69,12.23.61-7.49,10.52-11.51,10-20.15-5.82-1.62-9.22,5.4-12.42,8.62-4.21,4.22-10.14,7.1-15.16,10.43,1-3.72,3-11.43,2-14.81-4.32,6.56-8.26,12.28-14,17.83-4.35,4.22-9,8.11-12.59,13.07-1.5,2.07-2.47,4.71-4.1,6.61s-4.17,2.51-5.42,5.15c-1.89,4-2.07,11.67,2,14.4,8.07,5.48,15.32-8.28,21.56-10.7,8.31-3.21,16.48-6.53,25-8.78,7.89-2.08,24.71-9.25,24.64-19.37-2.77,2.2-5.88,6.17-9.41,6.64,1.61-6.64,9.61-9.13,9.87-17-4.51,3-10.66,13.84-16.64,11.62,3.9-5.54,14.16-12.28,13.65-19.84C550.27,307.83,549.16,309.25,547.89,310.84Z" transform="translate(-17.16 -7.93)"></path><path class="cls-5" d="M305.28,833c1.25,10.24-2,20.5-.9,31.1,16.77,1.37,30.95,3.77,48.07,2.1-4.47-9.49-13.38-10.91-22.82-16.28-15.26-8.62-8.51-15.46-14.49-28.57Z" transform="translate(-17.16 -7.93)"></path><path class="cls-5" d="M253.43,837.71c1.24,10.25-2.05,20.52-.9,31.12,16.77,1.37,31,3.77,48.06,2.09-4.47-9.48-13.37-10.9-22.81-16.28-15.26-8.6-8.52-15.44-14.48-28.56Z" transform="translate(-17.16 -7.93)"></path><path class="cls-6" d="M346.66,426.61S368,515.43,362.09,596.75,332.7,844.66,332.7,844.66l-39.44-.82,10.79-300.73L279.33,851.05l-33.68-1.45S233.27,656.6,220.87,587c-11.3-63.44-6.36-121.36,15.5-157.14C236.37,429.87,315,447.58,346.66,426.61Z" transform="translate(-17.16 -7.93)"></path><path class="cls-4" d="M265.38,241.43c2-.63,4.4-1.33,7.23-2.3,11.84-4.11,17.41-9.91,22.31-20.58,1.35-2.93,5.87-25.19,8.28-25.77,9.17-2.19,24.12-6.47,31.41.26,7.55,7,7.17,26.52,11.33,35.71,2.24,5,7.59,8.28,10,12.8,9.43,17.75-8.95,49.17-14,66.65-3.31,11.36-5.21,31.76-17.54,38.55-27,14.91-49.2-46.47-54.42-60.29-3.68-9.61-9.14-19-11.17-29C256.39,245.48,258.44,243.69,265.38,241.43Z" transform="translate(-17.16 -7.93)"></path><path class="cls-7" d="M346.56,230.63c0-.12,0-.26,0-.37a20.2,20.2,0,0,1-1.23-2.3c-3.74-9.13-3.52-28.5-10.31-35.43-4.82-4.93-13.28-4-20.65-2.3-2.8,4.56-6,10.42-8.16,14.08a47.08,47.08,0,0,0,3.06,5.13C317.52,221.59,333.32,234.2,346.56,230.63Z" transform="translate(-17.16 -7.93)"></path><path class="cls-4" d="M311.46,207.66a43,43,0,0,1-5.84-5.26c-11.83-13.09-6.38-47-.09-62.47,7-17.24,20-24.12,35.43-23,37.35,2.6,37.89,72.4,16.86,96.13C346.94,225.28,324.56,217.61,311.46,207.66Z" transform="translate(-17.16 -7.93)"></path><path class="cls-5" d="M298.38,191.22c-7.51-18.63-16-30.31-17.32-48.09C279.59,123.48,297.64,105,316.25,102c15.46-2.55,35.63,3.59,48.12,13.5,6.72,5.33,12.19,12.29,12.63,21.37.65,12.91-2.86,15.44-9.72,17.47-1.75.52-10.59-.13-12.1-.62,6.29,19.44-22,7.37-28.93,7.91-15,1.2-16.26,17.86-23.45,27.54Z" transform="translate(-17.16 -7.93)"></path><path class="cls-8" d="M364.34,249.2s7.77-11.06,26.7,13.73-.94,86.69,24,98.33C442.47,371.7,491.44,336,491.44,336l19.92,26.35s-88.1,69.74-115.71,54.68-31.11-64.51-31.11-64.51S322.55,254.73,364.34,249.2Z" transform="translate(-17.16 -7.93)"></path><path class="cls-9" d="M292.42,222.93l35.52,24.24,20.89-6.77s17.57-14.74,34.58,22.48c0,0-22.14,124.16-40.61,176.56,0,0-81.84,17.57-110.14-1.23s3.73-179,3.73-179-1.07-9.44,17.57-14.75S292.42,222.93,292.42,222.93Z" transform="translate(-17.16 -7.93)"></path><path class="cls-8" d="M247.74,246.39,285,228.48l24.13,92.15-23,258.12-86.83,3s4.39-79,16.51-134.77S232.5,245.85,247.74,246.39Z" transform="translate(-17.16 -7.93)"></path><polygon class="cls-9" points="329.02 222.12 337.88 229.64 317.74 249.37 308.98 238.84 329.02 222.12"></polygon><polygon class="cls-5" points="321.78 251.79 310.41 239.59 311.16 238.88 321.86 250.36 338.6 235.94 339.27 236.72 321.78 251.79"></polygon><path class="cls-8" d="M353.64,235.36l-16.32,86.4-7.74,259.55,45.77,2.94s-16.87-144.74-4.78-201.46S403.46,239.56,353.64,235.36Z" transform="translate(-17.16 -7.93)"></path><polygon class="cls-10" points="309.44 237.79 302.35 251.48 307.3 256.3 289.52 400.81 306.98 426.03 317.16 408.57 320.33 310.8 314.74 255.33 319.26 247.57 309.44 237.79"></polygon><path class="cls-5" d="M252.35,461.19c-.1-.22-10.88-22.23-18.62-54.83s11.71-74.27,11.91-74.69l.93.44c-.19.41-19.52,41.64-11.84,74s18.44,54.4,18.55,54.62Z" transform="translate(-17.16 -7.93)"></path><polygon class="cls-10" points="189.62 513.57 163.24 458.65 260.58 407.96 288.36 483.45 189.62 513.57"></polygon><polygon class="cls-5" points="183.53 445.63 274.1 411.23 295.56 485.08 197.66 512.49 183.53 445.63"></polygon><polygon class="cls-11" points="190.66 519.82 300.2 492.13 280.47 415.56 166.52 446.03 190.66 519.82"></polygon><path class="cls-12" d="M219.4,403c7.33,21.61,27.52,68.57,36.8,77s41.91,24.86,25.37,39c-7.75,6.62-13.34,6.14-22.39,6.47-5.29-10.29-9-17.84-15.6-27.14-12.21-17.09-26.33-31.41-39-47.95Z" transform="translate(-17.16 -7.93)"></path><path class="cls-8" d="M222.35,269.37c13.46-19,30.08-38.64,46.07-13.59s-9,40.15-23.35,73.53-16.52,53.69-13.6,80.23c.69,13.24,32.63,73.87,32.63,73.87l-21,22.9s-56.25-44.16-61-109.29S200.39,300.33,222.35,269.37Z" transform="translate(-17.16 -7.93)"></path><polygon class="cls-9" points="277.01 210.98 267.51 223.91 297.63 256.75 309.14 238.16 277.01 210.98"></polygon><polygon class="cls-5" points="301.85 253.72 270.69 225.79 271.38 225.02 301.55 252.06 308.52 238.6 309.44 239.07 301.85 253.72"></polygon><polygon class="cls-5" points="289.71 313.91 263.05 270.9 267.04 256.06 257.69 256.72 264.2 222.77 265.21 222.96 258.96 255.6 268.41 254.92 264.16 270.74 290.59 313.37 289.71 313.91"></polygon><polygon class="cls-5" points="321.36 317.88 320.44 317.4 342.54 275.23 337.07 260.77 346.32 260.58 337.48 230.6 338.47 230.31 347.69 261.59 338.55 261.77 343.67 275.3 343.56 275.5 321.36 317.88"></polygon><path class="cls-13" d="M265.07,331.48a1.59,1.59,0,0,1-1.51-1.1c-.58-1.8-14.11-44.15,5.46-52.23a10.39,10.39,0,0,1,9.9.58c11.57,7.18,13.81,37.85,13.9,39.16a1.59,1.59,0,0,1-1.47,1.69,1.62,1.62,0,0,1-1.69-1.47c0-.31-2.22-30.36-12.41-36.68a7.27,7.27,0,0,0-7-.35c-16.89,7-3.79,47.91-3.65,48.32a1.59,1.59,0,0,1-1,2A1.67,1.67,0,0,1,265.07,331.48Z" transform="translate(-17.16 -7.93)"></path><path class="cls-14" d="M266.89,331.48a3,3,0,1,1-3-3.51A3.29,3.29,0,0,1,266.89,331.48Z" transform="translate(-17.16 -7.93)"></path><path class="cls-14" d="M295.44,318.79a3,3,0,1,1-3-3.51A3.29,3.29,0,0,1,295.44,318.79Z" transform="translate(-17.16 -7.93)"></path><path class="cls-13" d="M372.12,312.45a9.52,9.52,0,1,1-9.51-9.52A9.51,9.51,0,0,1,372.12,312.45Z" transform="translate(-17.16 -7.93)"></path><path class="cls-15" d="M367.36,312.45a4.76,4.76,0,1,1-4.75-4.76A4.75,4.75,0,0,1,367.36,312.45Z" transform="translate(-17.16 -7.93)"></path><path class="cls-13" d="M343.83,220.6a1.57,1.57,0,0,0-.64-.48,51.54,51.54,0,0,0,2.15,7.84c.09.19.53-.4.6.79,8.34,13.43,25.19,46.09,17,74.3a1.58,1.58,0,0,0,1.08,2,1.32,1.32,0,0,0,.48.06,1.57,1.57,0,0,0,1.48-1.14C377,266.07,345.19,222.44,343.83,220.6Z" transform="translate(-17.16 -7.93)"></path><path class="cls-13" d="M295.52,216.67a6.88,6.88,0,0,0,.27-.71,41.65,41.65,0,0,0-24.67,18.3C264,246,263,261.41,268.1,280a1.58,1.58,0,0,0,1.52,1.16,1.54,1.54,0,0,0,.43-.06,1.59,1.59,0,0,0,1.11-1.95c-4.88-17.72-4-32.27,2.65-43.25A39,39,0,0,1,294,219.84C294.49,218.83,295,217.78,295.52,216.67Z" transform="translate(-17.16 -7.93)"></path><path class="cls-16" d="M366.21,185.82c-4.64-1-7.2-7.4-5.7-14.23S367,160,371.65,161.06s7.19,7.4,5.69,14.22S370.86,186.84,366.21,185.82Zm5-23c-4-.87-8.25,3.18-9.53,9s.91,11.31,4.88,12.18,8.25-3.17,9.53-9S375.23,163.71,371.25,162.84Z" transform="translate(-17.16 -7.93)"></path><path class="cls-16" d="M339.16,189.88c-4.64-1-7.2-7.4-5.7-14.23s6.49-11.55,11.13-10.53,7.2,7.4,5.7,14.22S343.8,190.9,339.16,189.88Zm5-23c-4-.87-8.25,3.17-9.53,9s.91,11.31,4.88,12.19,8.25-3.18,9.53-9S348.18,167.77,344.2,166.9Z" transform="translate(-17.16 -7.93)"></path><rect class="cls-16" x="349.74" y="175.38" width="11.18" height="1.55" transform="translate(-28.45 16.98) rotate(-3.95)"></rect><path class="cls-3" d="M502.26,519.58,472.17,692.81s29,112.27,39.85,158.11c-.4.51-29.69.64-29,8.34s46.89.13,46.89.13S521,712,522.23,694.32s32.1-117.76,32.23-157.88S519.79,493.15,502.26,519.58Z" transform="translate(-17.16 -7.93)"></path><path class="cls-5" d="M498.69,846.68a19,19,0,0,1-2.76-2c-6.86,1.1-13.24,3-12.92,6.68.69,7.7,46.89.13,46.89.13s-.12-2-.33-5.61l-1.87-1.12S509.27,853.31,498.69,846.68Z" transform="translate(-17.16 -7.93)"></path><path class="cls-17" d="M608,465.12,652.8,727.81s-139.69,15.63-224.5,7L483.63,476Z" transform="translate(-17.16 -7.93)"></path><path class="cls-13" d="M430,727.09l-1.54,7.19c0,.18,0,.36,0,.54l2.08.2C430.36,732.44,430.16,729.79,430,727.09Z" transform="translate(-17.16 -7.93)"></path><path class="cls-13" d="M626.56,730.4c.39-7.59.67-18.13.41-31.21q9.82-2.6,20-5.63l-.35-2q-10,3-19.69,5.56c-.26-10.87-.91-23.41-2.17-37.4q7.72-2.08,15.66-4.47l-.35-2.05c-5.22,1.56-10.4,3.05-15.5,4.43-.89-9.51-2.07-19.66-3.61-30.4q-.45-3.13-.94-6.37c4.56-1.24,9.2-2.57,13.86-4l-.35-2.05c-4.65,1.38-9.28,2.72-13.83,4-1.75-11.18-4-23.27-6.71-36.18,4.73-1.27,9.52-2.65,14.35-4.08l-.35-2c-4.86,1.44-9.68,2.83-14.43,4.11-2.45-11.3-5.32-23.21-8.69-35.66,5.56-1.46,11.21-3,16.93-4.73l-.35-2c-5.78,1.7-11.5,3.31-17.12,4.79q-4.65-17-10.59-35.19,10.56-2.69,21.51-5.92l-.34-2.05q-11.1,3.27-21.82,6-5.6-16.94-12.46-34.79,9.61-2.31,19.55-5.07l-11.91,1Q583,468,578.87,469c-.17-.44-.35-.88-.52-1.31l-2.14.18.64,1.62c-13.4,3.17-26.28,5.73-38.59,7.79q-1.17-2.94-2.36-5.89l-2.15.19q1.23,3,2.42,6c-14,2.28-27.32,3.92-39.73,5q-1.51-3.75-3.11-7.55l-2.16.19c1.06,2.53,2.1,5,3.12,7.55-4.22.36-8.32.66-12.33.91l-.44,2.1c4.4-.28,8.92-.6,13.59-1q7.39,18.31,13.42,35.77c-12.53,1.27-24.21,2-35,2.38l-.44,2.09c11.07-.38,23.13-1.14,36.09-2.47q6.36,18.51,11.33,35.88c-14.28,1.62-27.53,2.54-39.63,3q-4.25-14.1-9.39-29l-.83,3.92q4.37,12.82,8.08,25.11c-4.45.15-8.77.24-12.9.27h-.61l-.44,2.07h1c4.34,0,8.89-.13,13.6-.3,3.77,12.61,7,24.74,9.86,36.33-6.13.26-12,.41-17.51.45-5.07,0-10,0-14.7-.12l-.44,2.06c3.71.08,7.51.14,11.42.14l3.64,0c5.71,0,11.75-.19,18.08-.46,3.09,12.84,5.64,25,7.74,36.39-7,.33-13.64.51-19.87.56-6.77,0-13.22-.05-19.4-.24q-2.12-10.47-4.75-21.68l-1,4.75q2,8.65,3.64,16.86c-2.45-.09-4.83-.2-7.18-.33l-.43,2c2.62.14,5.28.27,8,.36,2.55,12.77,4.55,24.66,6.11,35.56,0,.31.09.63.13.94-7.8-.27-15.1-.72-21.88-1.28l-.43,2c7,.59,14.52,1,22.6,1.33,1.81,13.07,3.09,25.25,4,36.41-12.79-.49-24.2-1.45-34.09-2.59l-.43,2c10.05,1.17,21.67,2.14,34.68,2.63q.76,10.31,1.12,19.38l2.07.05q-.36-9.06-1.12-19.35,7.88.27,16.38.27h3.64q8.42-.06,17.76-.45c.38,7.05.6,13.58.7,19.56l2.06,0c-.1-6-.32-12.55-.7-19.62,11.52-.54,24-1.51,37.42-3.08.3,8,.39,15.12.36,21.45l2.06-.1c0-6.38-.07-13.6-.37-21.59,11.77-1.43,24.2-3.31,37.21-5.76.25,9.78.2,18.22,0,25.17l2.06-.15c.2-7,.25-15.54,0-25.41,11.9-2.28,24.29-5.06,37.09-8.38.24,13,0,23.4-.44,30.86Zm-7.66-103c1.55,10.88,2.74,21.15,3.64,30.75-12.89,3.44-25.34,6.3-37.34,8.68q-1.28-13-3.31-27.41c-.44-3-.9-6.1-1.4-9.26,12-2.42,24.57-5.3,37.51-8.78Q618.46,624.42,618.9,627.38Zm-47.64-35.12c2.81,12.91,5.07,25,6.88,36.24-13.28,2.61-26,4.63-38,6.16-1.93-11.29-4.3-23.42-7.22-36.3C545.06,596.85,557.85,594.86,571.26,592.26Zm-38.78,4.08c-2.63-11.47-5.7-23.52-9.27-36.06,12.2-1.43,25.13-3.37,38.69-5.91q5.18,18.76,8.91,35.88C557.4,592.85,544.6,594.83,532.48,596.34Zm8.28,55.49q1.62,11.29,2.73,21.69c-13.58,1.67-26.3,2.73-38,3.33q-.78-6.35-1.73-13c-1.05-7.38-2.31-15.23-3.81-23.49,11.87-.61,24.75-1.69,38.51-3.39C539.31,642.09,540.08,647.06,540.76,651.83Zm2.06-.21q-1-7.17-2.32-14.92c12-1.53,24.7-3.55,38-6.16.49,3.09.95,6.12,1.37,9.07,1.39,9.7,2.48,18.91,3.34,27.61-13.15,2.56-25.72,4.55-37.63,6.06Q544.42,662.9,542.82,651.62Zm74.86-32.31c-12.95,3.48-25.46,6.37-37.52,8.79-1.81-11.23-4.07-23.34-6.88-36.24,12.11-2.4,24.69-5.27,37.71-8.74C613.74,596,615.94,608.14,617.68,619.31Zm-7.13-38.21c-13,3.47-25.6,6.35-37.71,8.74-2.52-11.38-5.46-23.35-8.91-35.85,12.16-2.33,24.83-5.16,37.93-8.57Q606.92,564.11,610.55,581.1Zm-9.23-37.67q-19.67,5.12-37.94,8.56-4.77-17.15-10.86-35.51c12.22-2.22,25-4.94,38.2-8.25Q596.69,526.42,601.32,543.43Zm-23.72-72q6.89,17.84,12.48,34.8c-13.23,3.31-26,6-38.22,8.24q-5.77-17.16-12.83-35.24C551.34,477.2,564.21,474.63,577.6,471.46Zm-80.35,13.21c12.4-1.13,25.67-2.77,39.69-5.07q7.09,18.07,12.86,35.26c-13.78,2.44-26.86,4.24-39.17,5.54Q504.6,503,497.25,484.67Zm14.07,37.73c12.3-1.3,25.38-3.11,39.14-5.55q6.13,18.35,10.89,35.52c-13.58,2.55-26.51,4.47-38.72,5.9Q517.65,540.93,511.32,522.4Zm-29.79,41.16c12.11-.47,25.34-1.41,39.6-3,3.58,12.54,6.65,24.59,9.29,36.06-14,1.68-27.07,2.71-39.06,3.27C488.54,588.28,485.29,576.15,481.53,563.56Zm10.32,38.35c12-.57,25-1.61,39-3.3,2.92,12.88,5.3,25,7.22,36.31-13.78,1.7-26.66,2.78-38.53,3.38C497.47,626.91,494.93,614.75,491.85,601.91Zm-27.16,74.16c-1.55-10.82-3.53-22.62-6.05-35.27,4.9.15,10,.24,15.25.24l3.65,0c6.37,0,13.17-.23,20.32-.57,1.51,8.3,2.77,16.18,3.84,23.6.63,4.4,1.19,8.7,1.71,12.9-7,.33-13.68.51-19.93.56-6.48,0-12.68,0-18.62-.22C464.8,676.88,464.74,676.48,464.69,676.07Zm24.66,40c-7.08.06-13.83,0-20.26-.27-.87-11.16-2.14-23.34-3.94-36.42,4.7.14,9.57.23,14.61.23l3.64,0c6.35,0,13.13-.23,20.26-.57,1.58,13.32,2.61,25.57,3.25,36.61Q497.68,716,489.35,716.05Zm19.62-.54c-.63-11-1.66-23.3-3.24-36.6,11.71-.61,24.41-1.67,38-3.33,1.42,13.56,2.26,25.91,2.72,36.84C533,714,520.5,715,509,715.51Zm39.51-3.33c-.46-10.95-1.3-23.29-2.72-36.85,11.9-1.51,24.47-3.49,37.61-6.05,1.31,13.81,2,26.25,2.34,37.12C572.69,708.86,560.26,710.75,548.48,712.18ZM587.77,706c-.34-10.88-1-23.33-2.37-37.14,12-2.37,24.45-5.22,37.33-8.65,1.25,14,1.89,26.54,2.14,37.38Q605.66,702.59,587.77,706Z" transform="translate(-17.16 -7.93)"></path><path class="cls-3" d="M551.16,254.47l.07,0a110.3,110.3,0,0,0-.42,12.46,42.3,42.3,0,0,0,4,15.44c2.38,5.17,17.1,14.31,16.26,19.61-.44,2.81-4.16,5-6.05,6.7-8.19,7.53-16.54,14.74-24.26,22.74s-18.44,14.14-30,11c-11.21-3.06-5.24-14.24-1.11-21.18,4.79-8,11.2-20.79,4.36-29.67-3.09-4-8-6.54-11.42-10.07C518.42,273.27,533.17,257.91,551.16,254.47Z" transform="translate(-17.16 -7.93)"></path><path class="cls-5" d="M566.24,298.36A25,25,0,0,1,578.56,301c12.65,6.31,22.9,19.78,29.9,31.83,8.85,15.22,11.71,33.35,12.85,50.68,2,30.22-2.28,71.39-22,96.11-7.84,9.83-21.14,10.57-32.74,11.82-19.48,2.09-39.92,1.56-59.39-.43-9-.92-18.49-4.47-26.44-8.39-4.36-2.14-7.39-5.27-10.59-9.28-8.91-11.13-4.12-29-.63-41.17,2.68-9.38,10.18-19.64,10.42-29.48.15-6.52-4.82-4.94-9.93-8s-6.55-7-6.26-12.75c.42-8,4.46-17.06,7.51-24.78,6.56-16.54,13.24-47.5,31.91-53.73,3.8-1.27,16.11,1.17,16.11,1.17-.66,9-1.28,18.05-2,27.06.35-4.35,10.94-13.58,14.05-16.47a68.31,68.31,0,0,1,9.95-7.74c5.15-3.26,11.8-5.84,17.54-7.78A26.85,26.85,0,0,1,566.24,298.36Z" transform="translate(-17.16 -7.93)"></path><path class="cls-3" d="M543,269.92a34.09,34.09,0,0,0,7.76-13.39c7.09-24,1.23-56.87-24-67.27-43.35-17.92-52.78,22.62-54.66,29.21s-.71,17.91-5.66,25.69-5.65,9.89-5.65,9.89,9.19,4.24,11.31.71c0,0-3.54,30.39,12,33.23C502.33,291.29,529.16,285,543,269.92Z" transform="translate(-17.16 -7.93)"></path><path class="cls-8" d="M504,217.3s-29,23.32-52.31.7c0,0,9.89,1.42,14.84-4.95s6.36-43.11,53-36.05,49.48,60.09,32.52,86.24C552.05,263.24,511.75,248.4,504,217.3Z" transform="translate(-17.16 -7.93)"></path><path class="cls-8" d="M513.68,161.67c-2.11,8.93,4.51,18.13,14.77,20.55s20.28-2.87,22.38-11.8-4.51-18.13-14.77-20.54S515.78,152.74,513.68,161.67Z" transform="translate(-17.16 -7.93)"></path><path class="cls-8" d="M535.08,185.48s32.51,26.87,17,67.16C552.05,252.64,561.24,218,535.08,185.48Z" transform="translate(-17.16 -7.93)"></path><path class="cls-8" d="M528.45,182.22s26.42,39.32,14.41,68.3C542.86,250.52,541.61,207.22,528.45,182.22Z" transform="translate(-17.16 -7.93)"></path><path class="cls-8" d="M537.2,153.67s16.26,18.38-4.94,24.74C532.26,178.41,563.35,174.17,537.2,153.67Z" transform="translate(-17.16 -7.93)"></path><path class="cls-16" d="M492,463.21s-1.41-19.08-21.2-16.25-16.26,2.11-19.09,118-4.94,305.2-4.94,305.2l12,.71,4.24-395.68s0-14.84,9.19-15.55S482.14,478.06,492,463.21Z" transform="translate(-17.16 -7.93)"></path><path class="cls-3" d="M567.24,303.16c23.19-2.9,33.94,53,40.3,82s2.11,65.74-14.85,72.1-51.6-3.53-73.52-7.06-51.6-.71-58,5.65-12,12.72-8.48,20.5-5.66,6.36-9.9-.7-4.95-37.47,14.14-43.83,45.24,0,74.93,2.12c27.82,2,31.81,5.65,31.81,5.65s8.48-3.53-2.83-34.63S539,306.69,567.24,303.16Z" transform="translate(-17.16 -7.93)"></path><path class="cls-6" d="M605.74,370.39s-25.92,24.2-51.11,15.4c0,0-20.15-79.18,10.8-84.31S605.74,370.39,605.74,370.39Z" transform="translate(-17.16 -7.93)"></path><path class="cls-18" d="M564.43,379.21A50.3,50.3,0,0,1,553,377.88l.23-1c29.72,6.92,49.48-15.85,49.68-16.08l.78.66C603.51,361.66,588.3,379.21,564.43,379.21Z" transform="translate(-17.16 -7.93)"></path><path class="cls-5" d="M446.48,862a4.24,4.24,0,0,0,4.24,4.25h6.37a4.24,4.24,0,0,0,4.24-4.25V857a4.25,4.25,0,0,0-4.24-4.25h-6.37a4.25,4.25,0,0,0-4.24,4.25Z" transform="translate(-17.16 -7.93)"></path><path class="cls-18" d="M563.39,372.5A50.22,50.22,0,0,1,552,371.17l.23-1c29.72,6.91,49.48-15.86,49.68-16.09l.78.67C602.48,355,587.27,372.5,563.39,372.5Z" transform="translate(-17.16 -7.93)"></path><path class="cls-5" d="M556.25,856.31a19.77,19.77,0,0,1-2.83-1.89c-6.81,1.37-13.11,3.57-12.64,7.2,1,7.66,46.86-1.77,46.86-1.77s-.2-2-.56-5.59l-1.91-1S567.1,862.51,556.25,856.31Z" transform="translate(-17.16 -7.93)"></path><path class="cls-5" d="M383.44,370.47l-1-.23c5.43-23.76,4.81-60.77,4.8-61.15h1C388.27,309.45,388.89,346.59,383.44,370.47Z" transform="translate(-17.16 -7.93)"></path></g></g></svg>