<?xml version="1.0" encoding="UTF-8"?> <svg xmlns="http://www.w3.org/2000/svg" id="Layer_1" data-name="Layer 1" viewBox="0 0 1122.14 843.81"><defs><style> .cls-1 { fill: none; } .cls-2 { fill: #dbf1ff; } .cls-3 { fill: #b9e5ff; } .cls-4 { fill: #9ad6f4; } .cls-5 { fill: #21246b; } .cls-6 { fill: #e8b38e; } .cls-7 { fill: #ff5a08; } .cls-8 { fill: #3a3942; } .cls-9 { fill: #2e3190; } .cls-10 { fill: #52b4f2; } .cls-11 { fill: #d4303c; } .cls-12 { fill: #871f26; } .cls-13 { opacity: 0.51; } .cls-14 { fill: #e6e7e8; } .cls-15 { fill: #56bdff; } .cls-16 { fill: #66c3ff; } .cls-17 { fill: #bd9173; } .cls-18 { fill: #3c536b; } .cls-19 { fill: #b07e5c; } .cls-20 { fill: #c72d38; } .cls-21 { fill: #f9ae3b; } .cls-22 { fill: #f9d7d7; } .cls-23 { fill: #fff; } .cls-24 { fill: #418ebf; } .cls-25 { fill: #f72c3a; } .cls-26 { fill: #3d42c4; } .cls-27 { fill: #171948; } .cls-28 { fill: #4248c6; } .cls-29 { fill: #fabe62; } .cls-30 { fill: #fbc676; } .cls-31 { fill: #fcd08d; } .cls-32 { fill: #59ad7b; } .cls-33 { fill: #479165; } .cls-34 { fill: #3c8459; } .cls-35 { fill: #2e6b47; } .cls-36 { fill: #7c5a2a; } .cls-37 { fill: #ae9b7a; } .cls-38 { fill: #c64255; } .cls-39 { fill: #dd97b0; } .cls-40 { fill: #eaa803; } .cls-41 { fill: #e5ae79; } .cls-42 { fill: #82af77; } .cls-43 { fill: #3a5b40; } .cls-44 { fill: #66915d; } .cls-45 { fill: #a3d8b8; } .cls-46 { fill: #75a869; } </style></defs><title>inhome-banner</title><rect class="cls-1" x="387.67" y="0.44" width="690" height="843"></rect><g><path class="cls-2" d="M-178.72,118c-45.18,29.1-77.44,65.42-93.43,105.22C-294.86,281-291.26,346-284.33,404.9a1491.92,1491.92,0,0,0,37.15,198.32c14.66,56.85,33.22,114.23,74.6,165,14.91,18.3,33.12,35.9,58.17,48.5,38.51,19.37,88.87,17.41,135,19.34l130.63,5.48c85.84,3.6,184.25-.73,232.09-53.28,126.33-138.79,199.24-302.2,224-462.85,11.81-76.58,5.82-157.2-47.79-227.22a232.86,232.86,0,0,0-101.17-76C401.29,0,331.55-2.55,265.52.74,116.43,8.17-66.29,43.89-178.72,118Z" transform="translate(387.67 0.44)"></path><path class="cls-3" d="M-305.78,736.14a31.86,31.86,0,0,0,5.07,18.4c9.13,15,27.9,26.07,47.16,35.31,47.13,22.86,101.16,37.82,157.91,43.7,11,1.09,20.92-1.54,16.61-10.37-3.09-6.32-24.51-12.61-31.31-17.52a487.46,487.46,0,0,1-50.16-41.43c-11.59-11-22.4-22.39-34.8-32.93-11-9.35-23.58-18.17-39.14-23.51C-271.74,695-304.46,712.24-305.78,736.14Z" transform="translate(387.67 0.44)"></path><g><path class="cls-3" d="M596.3,777.67c12.57-12.09,21-26.22,24.53-41.38,1.44-6.1,2-12.8-2.51-18.47s-12.8-9-20.84-11.82a82.1,82.1,0,0,0-20.86-5.2c-15.68-1.45-30.93,1.92-41.81,9.25-28.88,20.22-48.42,48.22-80.91,65.23-8.24,4.31-95.87,50.28-98.85,47.11,19.76,20.86,98.74,11.76,125.12,6.62C525.66,820.14,569.46,803.68,596.3,777.67Z" transform="translate(387.67 0.44)"></path><path class="cls-4" d="M600,757a227.76,227.76,0,0,1-55.47-3.68c.52-.32,1-.63,1.56-1a373.53,373.53,0,0,0,33.8-23.86c1.12-.89-3.36-1.87-4.46-1q-7.33,5.85-15.13,11.36a35.94,35.94,0,0,1-1.68-25.8c.35-1.13-4.29-1.79-4.68-.54-2.87,9.09-2,18.76,2.55,27.94a1.37,1.37,0,0,0,.72.56c-33.13,23-71.65,42.1-109.9,60.76-12.6,6.15-25.93,12-41.8,13.43-3,.27.38,2,2.19,1.82a110,110,0,0,0,35.42-10c5.5-2.47,10.87-5.06,16.19-7.72a88.59,88.59,0,0,0,16.65,6c7.52,1.71,15.34,1.86,22.94,3.25,2.23.41,4.55-1,1.44-1.59-6.31-1.16-12.71-1.52-19.05-2.53a75.55,75.55,0,0,1-19.4-6.46c5.39-2.7,10.74-5.43,16.11-8.13,11.29-5.67,22.49-11.44,33.46-17.39a359.84,359.84,0,0,0,67.7,9.72c3.16.16,1.25-1.78-1-1.87a347.78,347.78,0,0,1-64.2-9.2c9.63-5.28,19.11-10.71,28.28-16.37a241.17,241.17,0,0,0,60,4.07C605.16,758.67,601.77,756.91,600,757Z" transform="translate(387.67 0.44)"></path></g><g><path class="cls-3" d="M592.71,342.7a135,135,0,0,0-27,33.81c-15.16,26.24-34.58,49.58-47.79,76.37-15.7,31.84-29.39,64.16-44,96.24-39.07,86-84.63,170.44-130.17,254.85,3.4-6.3,40.27-17,49.19-21.1q28.13-12.93,54.85-27.28a744.94,744.94,0,0,0,91.46-57.72c45.61-33.87,92.13-68.25,126.62-108.3,31.88-37,52.65-88.43,63.44-131,11.3-44.61,14-184.39-105.53-135.31A108.73,108.73,0,0,0,592.71,342.7Z" transform="translate(387.67 0.44)"></path><path class="cls-4" d="M719.29,413.58a291,291,0,0,1-72.17,16.24,786,786,0,0,0,25.92-94c.27-1.27-4.89-1.41-5.19,0q-2.16,10.2-4.58,20.36c-1.33-.6-2.78-1.09-3.78-1.6a57.08,57.08,0,0,1-8.33-5.23,43.32,43.32,0,0,1-12.21-14c-.65-1.2-5.77-.9-5,.53a44,44,0,0,0,10.61,12.79,55.7,55.7,0,0,0,7.93,5.53,72.66,72.66,0,0,0,7.69,4,.52.52,0,0,0-.06.28,1,1,0,0,0,0,.3c0,.45.71.76,1.28.86.34.05.66.1,1,.13A695.48,695.48,0,0,1,616,493.59c-30.55-10-58.74-27.87-71.7-50-.7-1.2-5.82-.87-5,.53C552.6,466.9,582,485.3,613.5,495.39a4.48,4.48,0,0,0,1.55.12q-5.09,10.68-10.64,21.26a561.71,561.71,0,0,1-54.56,84.48c-22.6,28.88-49.11,56.18-75.17,83.57q-20.34,21.34-40.91,42.6V712.48c0-1.37-5.18-1.37-5.18,0v18.87a.9.9,0,0,0,.7.72q-22.93,23.64-46.15,47.14c-1.1,1.13,3.92,1.63,5,.54q41.72-42.24,82.49-84.91,4.17-4.35,8.35-8.71c6.1,3.72,17.58,2.75,24.88,3a185.08,185.08,0,0,0,38.3-1c3.27-.55-.66-2-2.61-1.72a147.47,147.47,0,0,1-29.92,1l-13.39-.55c-4.46-.18-11,.32-14-2.55a2.42,2.42,0,0,0-1.12-.47c23-24,46-48,66.45-73,1.12-1.37,2.22-2.75,3.33-4.14,14.68,3.51,31.64,2.13,46.83,1.35a150.16,150.16,0,0,0,43.56-7.62c2.61-1-2.08-2-3.67-1.41A142.21,142.21,0,0,1,596,606.16c-13.83.68-29.47,2-42.75-1.24a4.53,4.53,0,0,0-.74-.09,546.13,546.13,0,0,0,32.43-45.39c33.17-1.37,67.35-4.93,94.85-18.93,1.89-1-3-1.73-4.47-1-25.74,13.1-58,16.54-89.08,17.88a604.59,604.59,0,0,0,58.17-119.63q1-2.89,2.07-5.81h.62A301.31,301.31,0,0,0,723,415C725.57,414,720.88,413,719.29,413.58Z" transform="translate(387.67 0.44)"></path></g><g><path class="cls-3" d="M-262.86,188.44c-49.65-4.13-95.32,29.34-113.09,70.12s-12.83,86.82-1.74,129.8c25.08,97.15,80.07,187.34,149.06,266.78a759.63,759.63,0,0,0,82.38,82.23c49,42,107.9,77.85,174.15,106-62-120.85-124.6-243.17-152.36-373.12C-141.16,392.09-136.59,199-262.86,188.44Z" transform="translate(387.67 0.44)"></path><path class="cls-4" d="M-10.36,805.54c-28.23-35.17-56.44-70.33-83.31-106Q-108.4,680-122.53,660.21a2,2,0,0,0,.58-.22c11.86-7.65,20.1-17.64,23.65-28.64.36-1.09-4.29-1.28-4.71,0-3.29,10.07-10.65,19.27-21.2,26.51-15.67-22.08-30.64-44.4-44.56-67-13.67-22.22-26.33-44.77-37.64-67.64,33.59-6.64,62.7-21.41,82.16-41.66,1-1-3.58-1.49-4.55-.48-18.64,19.41-46.43,33.67-78.53,40.28q-10.75-21.9-19.75-44.2-4.56-11.39-8.58-22.85a3.93,3.93,0,0,0,.48-.06,199.93,199.93,0,0,0,24.71-7.88c8.49-3,16.89-6.11,25-9.63,15.31-6.34,28.64-14.77,39.16-24.8,1-1-3.54-1.47-4.54-.48-10.53,10-23.89,18.32-39.23,24.53-7.25,3.11-14.75,5.93-22.34,8.61a219.23,219.23,0,0,1-23.86,7.77,643.31,643.31,0,0,1-25.34-99.48c-4.2-23.9-7.28-47.87-9.69-71.88a4.2,4.2,0,0,0,1.5,0c29.42-6.84,56.25-18.21,78.53-33.27,1.61-1.09-2.9-1.71-4.06-.91C-217,261.39-243,272.47-271.51,279.19c-1.76-17.71-3.15-35.45-4.36-53.18q-.54-7.94-1-15.88c-.08-1.26-4.79-1.23-4.71,0q.74,11.87,1.58,23.71a159.94,159.94,0,0,1-38.72-21.26c-1.1-.82-5.62-.27-4.07.91A164.24,164.24,0,0,0-281.13,236a3.79,3.79,0,0,0,1.25.15c2.45,33.91,5.7,67.79,11,101.54l.51,3.18c-36.78-2.14-75.18-4.82-106.74-19.39-1.38-.64-5.6.23-3.33,1.28,32.59,15,72.43,17.75,110.36,19.95q3.25,19.95,7.55,39.81-27.7-.83-55.3-2.87c-17.1-1.27-35.48-2-50.83-7.92-1.43-.55-5.7.37-3.33,1.28,15.52,6,33.77,6.93,51.08,8.25q29.31,2.24,58.79,3.08a599.42,599.42,0,0,0,22.46,77.52,705.1,705.1,0,0,0,55.32,114.43q6,10.13,12.26,20.17-22.78,1.19-45.58,2.11c-14.2.58-29.49,2.11-43.06-1.63-1.77-.49-5.24.77-2.38,1.56,13.83,3.82,29.11,2.53,43.6,1.95q24.27-1,48.52-2.25c18.63,29.76,39,59,60.36,87.83q11.86,16,24.11,31.91a159.91,159.91,0,0,1-49.37,2.88c-2.28-.22-4.39,1.45-1.25,1.75a171.91,171.91,0,0,0,52-2.86c18.86,24.51,38.21,48.83,57.71,73.1l10.57,13.16C-14.06,807.06-9.44,806.68-10.36,805.54Z" transform="translate(387.67 0.44)"></path></g><path class="cls-4" d="M-113.49,826.92q-18.24-9.24-36.22-18.73c1.28.33,3.28.17,3.51-.55A21.86,21.86,0,0,0-147.25,790c-.54-1.09-5.2-.85-4.55.48a20.8,20.8,0,0,1,1.06,16.69.53.53,0,0,0,.11.55q-19.6-10.37-38.92-21a1.62,1.62,0,0,0-.5-.27q-22.09-12.18-43.78-24.71a1.51,1.51,0,0,0-.52-.3q-10.36-6-20.65-12.06a.63.63,0,0,0,.36-.5A77.69,77.69,0,0,0-258.77,721c-.43-1.27-5.07-1.09-4.71,0a77.93,77.93,0,0,1,4.16,25.87q-9.21-5.48-18.33-11c-1.21-.73-5.74-.1-4.07.91q21.21,12.87,42.83,25.37c-9.61,6.37-23.61,6-36,7.15-3.12.27-1,2,1.25,1.75,12.93-1.16,27.3-1.06,37.63-7.23q20.43,11.78,41.23,23.24c-9.53,4.11-20.76,4.74-31.75,5.18-2.81.11-2.88,1.93,0,1.81,11.86-.48,24.15-1.13,34.51-5.45q36.66,20.15,74.45,39.3C-116.28,828.48-111.77,827.79-113.49,826.92Z" transform="translate(387.67 0.44)"></path></g><path class="cls-5" d="M208.26,753.5c13.34,5.48,27.18,9.74,41,14.67,25.92,9.26,51.69,18.92,77.52,28.43,5.59,2,11.86,4.11,17.32,1.74,6.08-2.63,8.75-9.64,10.81-15.94Q362.47,759.2,370,736c10.73-32.88,6.24-64.32-4.58-96.55q-15.34-45.7-30.68-91.4c-4.12-12.27-9.56-26-21.63-30.66-8.31-3.21-17.64-1.17-26.21,1.24a348.36,348.36,0,0,0-98.15,44.94c-4.27,2.83-8.6,5.88-11.29,10.24-3.48,5.65-3.72,12.65-3.86,19.29-.69,32.89-6.79,130-.78,139.5C179.34,742.84,197.63,749.14,208.26,753.5Z" transform="translate(387.67 0.44)"></path><path class="cls-5" d="M500.94,478.44c-.38-8.31-1-17.26-6.28-23.68-5.07-6.18-13.29-8.6-21-10.7L355.92,411.89c-6.35-1.73-13.17-3.45-19.38-1.27-11.64,4.1-14.66,18.86-15.85,31.14-2.17,22.33-4.35,44.79-2.75,67.17s7.17,44.89,19.38,63.7c15,23.09,38.85,39,63.76,50.73,28.18,13.23,61,73.72,88.49,53.69,22.29-16.23,15.52-108.8,14.46-131.76Z" transform="translate(387.67 0.44)"></path><g><path class="cls-6" d="M2.16,788.12A45.12,45.12,0,0,1-2.9,759.44l-18,10.59L-25.25,790C-15.73,790.29-6.4,790.65,2.16,788.12Z" transform="translate(387.67 0.44)"></path><path class="cls-7" d="M2.16,788.12c-8.56,2.53-17.9,2.17-27.41,1.85L-27.65,801c-.43,2-.83,4.15.13,5.93,1.36,2.53,4.74,3,7.62,3.1A124.49,124.49,0,0,0,1.32,808.9c3.56-.5,7.75-1.7,8.79-5.13s-1.7-6.68-3.92-9.48A42.75,42.75,0,0,1,2.16,788.12Z" transform="translate(387.67 0.44)"></path><path class="cls-6" d="M96.67,778.91c-.92-.59-1.87-1.14-2.77-1.76-5.37-3.73-10.35-8.4-13.64-14.1-3.2-5.54-1.43-11.17-.28-17.24L57.85,755.86A125.91,125.91,0,0,1,56.35,779C69,782.82,84,783.26,96.67,778.91Z" transform="translate(387.67 0.44)"></path><path class="cls-7" d="M120.3,791.93a10.11,10.11,0,0,0-3.47-2.42c-6.8-3.39-13.74-6.56-20.16-10.61C84,783.25,69,782.82,56.34,779c-.2,1.11-.42,2.23-.67,3.36-.87,4-.9,8.65,2,11.44,2.24,2.12,5.56,2.51,8.63,2.75q15.75,1.26,31.56,1.07C100.93,797.56,126.68,799.77,120.3,791.93Z" transform="translate(387.67 0.44)"></path><path class="cls-8" d="M184.16,282.32c-3.3,7.86-6,17-2.44,24.69-8.29,1.6-13.21-.41-19.71-1.54s-13.26-4.84-15-11.19c-1-3.73-.18-7.7,1-11.4a77.61,77.61,0,0,1,9.82-20.58c3.38-5,7.69-9.89,13.49-11.65,6.08-1.84,15.12.65,18.18,6.7C193.07,264.54,187,275.67,184.16,282.32Z" transform="translate(387.67 0.44)"></path><path class="cls-9" d="M-39.74,465.8a30.79,30.79,0,0,0-3.69,2.14c-13.68,9.27-15.52,25.64-18.73,40.42A225.17,225.17,0,0,0-67,563.71c1,32.34,7.17,64.27,13.31,96L-42,720.2c2,10.6,6,49,13.16,52,3.06,1.29,6.48,1.3,9.8,1.3,7.8,0,16.8-.6,21.44-6.88,2.9-3.92,20.8-178.43,22.89-213.43-.95,16,3.52,34.22,5.22,50.21q2.85,26.71,6,53.41c2.06,17.25,14.42,98.7,17.57,100.93,3.46,2.46,8,2.58,12.25,2.61s8.87,0,12.84-1.76c8.87-4,7.4-124.16,3.8-177.68q-2.7-40.11-7.74-80c-1.08-8.54-.1-27.27-5.38-33.95-5.75-7.28-23.27-6.18-31.3-6.13l-48.62.26C-20.16,461.18-30.84,461.4-39.74,465.8Z" transform="translate(387.67 0.44)"></path><path class="cls-5" d="M-34.9,753.94c.43-25.87-2.79-51.59-5.88-77.22s-6-51.34-5-77.17c.51-13.23,2.37-26.34,2.76-39.59s0-26.37,1.32-39.54c2-19.16,6-38,8.69-57.11a37,37,0,0,0-6.68,2.49,30.79,30.79,0,0,0-3.69,2.14c-13.68,9.27-15.52,25.64-18.73,40.43A225.09,225.09,0,0,0-67,563.71c1,32.35,7.17,64.28,13.31,96L-42,720.2c1.36,7,3.54,26.33,7,39.39C-35,757.7-34.93,755.82-34.9,753.94Z" transform="translate(387.67 0.44)"></path><path class="cls-5" d="M62.27,739.87c-1.19-3.82-2-7.78-3-11.65s-2.09-7.86-3.16-11.79c-2.1-7.76-4.23-15.52-6.2-23.32s-3.84-15.88-5.36-23.9c-1.4-7.39-2.32-14.87-3.27-22.32-2-15.34-3.68-30.72-6.39-45.95a229.14,229.14,0,0,0-9.48-37.1c.78,13.15,3.79,27,5.13,39.59q2.85,26.73,6,53.41c2.06,17.25,14.43,98.7,17.57,100.93,3.46,2.47,8,2.59,12.26,2.61h1.34A177.5,177.5,0,0,0,62.27,739.87Z" transform="translate(387.67 0.44)"></path><path class="cls-10" d="M103.91,384.6a30.81,30.81,0,0,1-2,7.78c-1.25,2.84-1.64,6.89,1.09,8.35,1.63.87,3.87.41,5.22,1.68s1,3.34,1.58,5.06c.73,2.36,3,3.86,5.07,5.18,10.7,6.71,18.88,11.51,31.33,14.11L139.35,439a123.78,123.78,0,0,1-59.63-9.29c-6.22-2.65-12.48-6-16.28-11.63-5.75-8.47-4.38-20.22.66-29.12s13.15-15.58,21.07-22.05c4.06-3.31,16.65-15.92,21-9.36,2.76,4.13.32,11.23-.64,15.56C104.72,376.85,104.48,380.79,103.91,384.6Z" transform="translate(387.67 0.44)"></path><g><path class="cls-11" d="M167.79,416.63h-.06l-.27,0c-1.08,0-1.87.06-2.23.09-3.9.26-15.26-.2-17.35,4.55a2.63,2.63,0,0,0,.08,2.79c.62,3.21,7.53,3.91,9.61,4.21a156.93,156.93,0,0,0,32.92,1.13c3.52-.26,11-.15,12.94-3.85C208.05,416.63,177.36,416.4,167.79,416.63Z" transform="translate(387.67 0.44)"></path><path class="cls-11" d="M181.38,378.07c-5.26-.26-10.57-.61-15.82.05-4.16.53-8.91,1.11-9.78,6-.52,3-1.44,5.87-1.56,8.9a39.61,39.61,0,0,0,1.33,12.26c1.63,5.83,4.69,11.85,9.6,15.57,9.28,7,20.81,3.28,25.17-7,.05-.13.08-.26.13-.39,7.68-2.11,17.16-9.1,16.87-17.77a10.38,10.38,0,0,0-3.13-6.79,11.07,11.07,0,0,0-7.56-4.18,12.33,12.33,0,0,0-3-.25,10,10,0,0,0-.66-2.39C191.12,378.07,185.09,378.25,181.38,378.07Zm12,19.84c.09-2.45.47-5.86.5-9.1,5.45-.68,10.5,2.87,8.25,9.07-1.77,4.9-5.67,7.19-9.86,9.37a54.38,54.38,0,0,0,1.11-9.34Z" transform="translate(387.67 0.44)"></path><path class="cls-12" d="M183.18,379.7a56.46,56.46,0,0,0-5.65-.25c-2.58-.07-5.18-.07-7.76.11-2.75.2-10.29.56-10.14,4.75.18,5.29,13.89,4.26,17,4.31,3.3.05,11.6.82,12.76-3.81C190.27,381.3,186.75,380.11,183.18,379.7Z" transform="translate(387.67 0.44)"></path><g class="cls-13"><path class="cls-14" d="M161.89,407.58c-2.78-4.6-2.38-11.35-2.37-16.5a1.17,1.17,0,0,0-2.33,0c0,5.57-.32,12.7,2.69,17.67a1.16,1.16,0,0,0,2-1.17Z" transform="translate(387.67 0.44)"></path><path class="cls-14" d="M164.93,413.15c-.16-.3-.32-.6-.5-.89-.79-1.27-2.8-.11-2,1.18.18.29.34.58.5.88C163.62,415.65,165.63,414.47,164.93,413.15Z" transform="translate(387.67 0.44)"></path></g></g><path class="cls-6" d="M147.76,426.64a17.87,17.87,0,0,1,8.66-2.38,90.29,90.29,0,0,1,9.85-.74c.89,0,2,.16,2.23,1a1.37,1.37,0,0,1-.59,1.34,3.87,3.87,0,0,1-1.42.56c-.8.2-4.48.63-4.84,1.33-.57,1.14,2.84.88,3.48.91,3.57.17,7.15.14,10.72,0a181,181,0,0,0,20.77-2.43,2.79,2.79,0,0,1,2.19.22c1.87,1.4-6.38,6.76-7.55,7.68a52.73,52.73,0,0,1-47.57,9.2c-.08,0,1.37-5.67,1.45-6,.84-3.48,1.91-6.92,2.18-10.47Z" transform="translate(387.67 0.44)"></path><path class="cls-15" d="M110.31,282.47l.61.49c5.79,4.77,9.56,11.67,12,18.65,3.72,10.59-.29,18.88-1.1,29.4-.77,9.86.38,20.68-5,29.49-3.76,6.11-9.59,8.83-15.17,12.85a67,67,0,0,0-12.68,12.84c-4.12,5.29-7.5,12.22-10.26,18.32-6.71,14.84-8.75,29.58-3.21,45.2,4.71,13.27,14.12,31.61-.36,42.74-8.55,6.58-20.18,7-31,7.17l-51.63.75c-13.37.2-39.26,5.82-51.36,1.43-17.71-6.42-6.2-41.54-3-55.34,5-21.69,13.74-42.29,21-63.25,7.93-22.83,21-44.77,35.35-64.12,17.24-23.31,53.06-46.65,82.74-47C89,272,101.09,275.16,110.31,282.47Z" transform="translate(387.67 0.44)"></path><path class="cls-6" d="M114.58,272.28C108,278.94,99.12,284.2,94.43,292.6c-5.68,10.17-2.23,23.58,2.46,33.57,1.21,2.57,2.91,5.28,5.67,5.95a7.07,7.07,0,0,0,6.21-2c3-2.77,4.49-7.19,6.57-10.63,3.48-5.77,6.63-11.78,10.57-17.26,3.59-5,8.61-7.5,12.58-12.2Z" transform="translate(387.67 0.44)"></path><path class="cls-6" d="M171.66,292.52c-1,.84-6.37.3-7.66.53-2.74.48-5.44,5.26-7.21,7.26-2.25,2.56-4.72,5.13-8.07,6.17-3.79,1.17-7.86-.47-11.3-2.46a50.6,50.6,0,0,1-22.57-27.11,44.74,44.74,0,0,1,2.56-35c6.89-13,21-21.1,35.4-22.43a41.91,41.91,0,0,1,5.93-.12c9.38.47,20,4,24.94,12.59,5.54,9.58,8,21,2.79,31.38-2.1,4.19-5.11,7.62-7.67,11.43-2.73,4.07-4.83,7.74-5.81,12.51C172.86,288,172.23,292.06,171.66,292.52Z" transform="translate(387.67 0.44)"></path><path class="cls-8" d="M163,252.28a9.64,9.64,0,0,0-1.78.14c-1.84.32-2.73,2.05-4,3.28a21.54,21.54,0,0,1-4.9,3.52,13.37,13.37,0,0,1-9.49,1.23c-1-.29-2-.72-3-.93a3.86,3.86,0,0,0-3,.47c-1.2.88-2.06,4.67-2.79,6.05a57.6,57.6,0,0,0-2.7,5.24,51.7,51.7,0,0,0-3,14.86,5.64,5.64,0,0,1-.72,2.93c-2.59,3.77-12.23-1.91-14.92-3.33-7.65-4-13.88-8.19-17.82-16-1.91-3.79-4.13-6.62-4.81-11a25.24,25.24,0,0,1,1-11.7c2.65-8,8.84-14.51,15.94-19.11a84.85,84.85,0,0,1,15.08-7.44c4.69-1.85,9.15-4.18,14.08-5.18,10.53-2.15,21.81-1.47,31.65,3.07a40.54,40.54,0,0,1,19.43,18.93,43.22,43.22,0,0,1,3.4,23.95,2.29,2.29,0,0,1-2,2.52,2.34,2.34,0,0,1-1-.13A31.91,31.91,0,0,1,174,258.51C170.31,256,167.49,252.38,163,252.28Z" transform="translate(387.67 0.44)"></path><path class="cls-6" d="M142,261.26a7.34,7.34,0,0,0-.51-4.9,3.9,3.9,0,0,0-4.2-2,4.78,4.78,0,0,0-2.91,3.26,10.74,10.74,0,0,0,4.1,12.13Z" transform="translate(387.67 0.44)"></path><path class="cls-16" d="M68.36,305.17c6.21,8.14,7.52,18.89,8.33,29.1.93,11.56,2.15,23.52,1.73,35.13-.28,7.88-2.61,15.94-2,23.8.47,5.67,3,11.46,7.86,14.44,2.44,1.5,5.81,2.94,5.71,5.8-.05,1.43-1.07,2.77-.82,4.18.4,2.22,3.34,2.69,5.59,2.68,3.67,0,8.11,2.61,11.93,3.5,4.48,1,8.51,3.61,13.15,4.11,9.32,1,21.82-1.9,31.07-3.91-.22,9.72,2.91,22.71-6.08,29.35-4.73,3.48-10.76,4.63-16.6,5.17s-11.8.6-17.42,2.3c-5,1.51-9.52,4.26-14.52,5.67-9.21,2.59-19,.43-28.32-1.74-7.68-1.79-16-4-20.79-10.22-3-3.88-4.2-8.88-7.14-12.78-3.26-4.3-8.32-6.9-11.86-11-5.6-6.43-6.66-15.54-7.06-24.05a265,265,0,0,1,9.42-83.39C35.67,305.12,51.37,282.88,68.36,305.17Z" transform="translate(387.67 0.44)"></path></g><g><path class="cls-17" d="M254,770.22c-1.1-2.47-2.29-5-3.15-7.44-3.16-9.16-13.88-68.12-17.05-77.27-2.52-7.29-3.8-29.32-12.46-31.34-8.91-2.09-38.18,17.8-38.57,26.52-.19,4.11,47.83,89.36,43.72,98.66A47.22,47.22,0,0,1,219.16,790C234.24,791.11,247.26,783.57,254,770.22Z" transform="translate(387.67 0.44)"></path><path class="cls-18" d="M254,770.22c-6.72,13.35-19.74,20.89-34.82,19.75-6.91,8.07-16.34,16.56-21.38,22.32a5.69,5.69,0,0,0-1.8,3.37,3.83,3.83,0,0,0,2.94,3.49,10.16,10.16,0,0,0,4.87-.17c15.24-3.32,28.53-12.34,41.18-21.47,3.6-2.59,7.26-5.3,9.68-9C258.78,782.15,256.63,776.18,254,770.22Z" transform="translate(387.67 0.44)"></path></g><g><path class="cls-17" d="M319.76,784.3c-1.15-2.6-2.4-5.2-3.31-7.82-3.32-9.61-4.5-27-7.83-36.63-2.65-7.65-8.67-60.28-17.75-62.4-9.36-2.19-44.4,5-44.81,14.16-.19,4.31,49.13,92.51,44.81,102.27-1.51,3.41-4.31,7.24-7.67,11.17C299,806.24,312.71,798.32,319.76,784.3Z" transform="translate(387.67 0.44)"></path><path class="cls-18" d="M319.76,784.3c-7.05,14-20.74,21.94-36.56,20.75-7.27,8.47-17.17,17.38-22.46,23.43a6,6,0,0,0-1.89,3.55,4,4,0,0,0,3.09,3.66,10.53,10.53,0,0,0,5.11-.18c16-3.48,30-13,43.25-22.55,3.78-2.72,7.62-5.56,10.16-9.46C324.8,796.83,322.55,790.56,319.76,784.3Z" transform="translate(387.67 0.44)"></path></g><path class="cls-19" d="M181.64,476.77a26.88,26.88,0,0,1-12.09-21.31,1.64,1.64,0,0,1,1.58-1.7,1.73,1.73,0,0,1,.86.2l16.29,9.12c7.52,4.21,15.35,8.7,19.66,16.28a13,13,0,0,1,1.77,5.26c.78,8.94-8.71,10.8-13.49,5.58-1.8-2-2.64-4.7-4.43-6.71C189,480.39,185.07,479,181.64,476.77Z" transform="translate(387.67 0.44)"></path><path class="cls-17" d="M198.2,439.8a1.67,1.67,0,0,0-1.1-.18c-1,.29-.65,1.8-.09,2.68q2.46,3.84,5.23,7.48a53.14,53.14,0,0,1-26.8-14.92c-.68,7.8-1.23,16.2,2.83,22.89,7.31,12.06,25.5,12.57,34.59,23.36.23.27,3.09-4.87,3.26-5.35a16.73,16.73,0,0,0,.91-6.5,40.88,40.88,0,0,0-1.81-10.75A31,31,0,0,0,198.2,439.8Z" transform="translate(387.67 0.44)"></path><path class="cls-20" d="M298.65,523.56c2.89-6.32,2.49-12.5.15-20.63-5.07-17.69-3.53-35.86-7.92-53.76-11.51,11.06-26.28,46.76-33.49,52.54-4.47,3.59-12.38,12-18.33,12-12.7,0-21.1-22.82-25.84-31.8l-22,5.32c2.41,13.88,4.92,27.92,10.81,40.71,8,17.33,25,35.4,45.77,31.1,8.18-1.69,15.6-5.84,22.78-10.09,7.89-4.68,15.78-9.63,21.91-16.45A35.52,35.52,0,0,0,298.65,523.56Z" transform="translate(387.67 0.44)"></path><path class="cls-21" d="M380.49,652.1a74.91,74.91,0,0,0,27.93-16c-54.3-4.26-107.42-23.75-152.76-54.06l-1.27.16A318.94,318.94,0,0,0,206,592c-16.56,4.71-34,11.78-42.75,26.6-9.56,16.19-5.9,36.8,0,54.65a375,375,0,0,0,16.54,40.53c49,17.08,106.66,15.64,158.46,1.24q-5.94-28.23-11.87-56.45C344.61,658.17,363.14,657.69,380.49,652.1Z" transform="translate(387.67 0.44)"></path><path class="cls-22" d="M421.22,618.17c5.54-13.24,4.83-28.16,4-42.49q-2-34.75-3.94-69.5c-1.05-18.55-2.7-38.63-15-52.55-14-15.83-36.62-24.49-59.15-25.1-27.5-.75-54.84,10.48-66.14,35.28-10.38,22.75-8.72,49.2-3.36,73.61,3,13.8,6,31.1-5.33,39.55-4.71,3.52-10.79,4.38-16.66,5.1,45.34,30.32,98.47,49.8,152.76,54.06A52.21,52.21,0,0,0,421.22,618.17Z" transform="translate(387.67 0.44)"></path><path class="cls-20" d="M425.24,575.68l-3.93-69.5c-1.05-18.55-2.7-38.63-15-52.55-11.78-13.33-34.53-26-52.88-25.2-1.54,10.42-2.42,21.16-5.18,31.34s-6.83,19.74-9.48,29.86c-4.8,18.3-6.74,37.22-8.14,56-2,26.64.32,61.2-17.41,83.21-.13.17,25.66,8.86,28.24,9.39a127.59,127.59,0,0,0,31.32,2.41c10.5-.49,20.35-2.84,30.55-5.1,5-1.12,4.62.7,9.31-3.78,3.74-3.59,6.61-8.91,8.59-13.63C426.77,604.93,426.05,590,425.24,575.68Z" transform="translate(387.67 0.44)"></path><path class="cls-20" d="M281,463.81c-5.12,11.25-7.31,23.56-7.57,35.87-.27,12.85,3.88,25.32,3.9,37.91,0,20.78-16,41.09-35.75,46.57,5.33,9.93,13.35,19.12,24.11,22.47,12.54,3.9,25.27-1.66,27.19-14.31,2.55-16.72,4.85-33.65,6.22-50.58,2.94-36.32,3.55-73.37,15.85-108.1C300.19,439.12,287.74,449,281,463.81Z" transform="translate(387.67 0.44)"></path><g><path class="cls-19" d="M322.83,456.51a9.56,9.56,0,0,0,6.81,4.08c3.53.41,6.84-1.74,9.47-4.14a40.94,40.94,0,0,0,13.18-29.92c0-1.62-.17-3.39-1.29-4.54-1.78-1.83-4.83-1.16-7.17-.14-2.78,0-6,1.26-9,1.38-3.65.14-7.31,0-11,.4-7.36.71-14.06,6.82-20.32,10.59a56.62,56.62,0,0,1,14.82,15.06C320,451.66,321.18,454.34,322.83,456.51Z" transform="translate(387.67 0.44)"></path><path class="cls-17" d="M283.72,401.79c-.2,7.84.33,15.94,4.14,22.34,6.2,10.43,19.56,13.53,31.57,11.87a62.77,62.77,0,0,0,34.88-17.47c10.49-10.26,18.7-24.88,19-39.63.24-10.67-6.2-20-14.43-25.6-10-6.79-22.8-11.88-35.18-11.86-15.41,0-26.75,10.44-33.3,25.39-4.7,10.73-6.31,22.51-6.69,34Z" transform="translate(387.67 0.44)"></path><path class="cls-23" d="M300.58,345.58a34.37,34.37,0,0,0-10.65,22.58c3.16-3.62,8.37-4.28,12.66-3.13s8,3.77,11.91,5.82a50.14,50.14,0,0,0,33,4.51c2.47-.5,5.7-.79,6.58,1.6.74,2-.91,4.19-2.31,5.92-9.45,11.63-13.11,28.07-9.37,42.06.36,1.34.93,2.83,2.2,3.21a4.42,4.42,0,0,0,3.12-.71c9-4.6,21.73-11,28.35-19.26,5.83-7.28,9-20.38,7.43-29.22,5.44.72,16.32-.79,19.23-6s2.22-13.64,1.95-19.46c-.47-10-9.06-23.55-18.82-24-13.63-.65-11.69,8.32-15.76,11.42-.81.62-8.22-1.37-6.3.26-8.06-6.84-15.85-11.41-26.6-12.33C306.7,326.26,302.29,344,300.58,345.58Z" transform="translate(387.67 0.44)"></path></g><path class="cls-11" d="M377.49,452.31c-6.52.77-12.24,4.57-17.67,8.25l-54,36.63c-6.86,4.66-14.33,9.5-22.62,9.23-6.53-.21-12.48-3.6-18-7.06a330.75,330.75,0,0,1-49.59-37.92l-16.22,17c7.8,14.8,15.68,29.71,26.44,42.52s24.76,23.51,41,27.35c16.1,3.8,33.23.61,48.45-5.88s28.87-16.11,42.35-25.7c9.47-6.73,19.08-13.62,26.12-22.85C392.09,483,402.25,449.38,377.49,452.31Z" transform="translate(387.67 0.44)"></path><path class="cls-24" d="M96.78,416.87c-6.19.13-13.36.56-17.55,5.81a1.34,1.34,0,0,0,0,1.83,1.31,1.31,0,0,0,1.82,0c3.77-4.72,10.18-4.94,15.73-5.07a1.29,1.29,0,0,0,0-2.57Z" transform="translate(387.67 0.44)"></path><g><path class="cls-21" d="M336.44,714c.09.4.17.8.26,1.2a299.7,299.7,0,0,1-91,11c-1.24-.05-2.48-.1-3.71-.17q-5.8-.3-11.54-.86l-1.5-.15a224.14,224.14,0,0,1-50.67-11l-.51-1.09c-.22-.5-.46-1-.68-1.49h0a362.87,362.87,0,0,1-15.33-37.94c-5.91-17.85-9.56-38.46,0-54.65A39.75,39.75,0,0,1,166,612.9c.72-.84,1.49-1.66,2.28-2.43A60.11,60.11,0,0,1,185.47,599c.88-.42,1.78-.82,2.69-1.2a137.5,137.5,0,0,1,16.3-5.61q7.81-2.24,15.74-4.05l2.61-.59q14.88-3.3,30-5.17l1.26-.16a336.28,336.28,0,0,0,34.1,20c1.2.62,2.42,1.22,3.63,1.82A325.62,325.62,0,0,0,356,627.83c1.17.3,2.34.6,3.52.88A305.87,305.87,0,0,0,394.45,635l1.16.13h0c3.75.45,7.51.81,11.27,1.11a71.14,71.14,0,0,1-18.49,12.27c-.6.28-1.2.55-1.81.81a80,80,0,0,1-7.63,2.88c-17.36,5.59-35.88,6.08-54.11,6.51q3.15,15,6.31,30h0l.76,3.62q1.92,9.12,3.83,18.23Z" transform="translate(387.67 0.44)"></path><g><path class="cls-25" d="M160.8,639.36a2.56,2.56,0,0,0,2.2,2.76,3,3,0,0,0,.6,0,1.56,1.56,0,0,0,1.2-1,1,1,0,0,0,.14-.22,2.1,2.1,0,0,0-.67-2.3C163.31,637.74,161,637.84,160.8,639.36Z" transform="translate(387.67 0.44)"></path><path class="cls-25" d="M165.06,622.81a2.17,2.17,0,0,0,.92,2.85,2.07,2.07,0,0,0,.34.15,1.35,1.35,0,0,0,1.29-.32,2.09,2.09,0,0,0,.25-.26,1,1,0,0,0,.28-.33,1.82,1.82,0,0,0-.25-1.77,1.74,1.74,0,0,0-2.34-.73A1.49,1.49,0,0,0,165.06,622.81Z" transform="translate(387.67 0.44)"></path><path class="cls-25" d="M174.23,658.48c.36.81,1.51,1.92,2.38,1.2a.69.69,0,0,0,.19-.1,1.28,1.28,0,0,0,.48-1.17c-.1-1-1.12-2.4-2.27-2.15S173.83,657.6,174.23,658.48Z" transform="translate(387.67 0.44)"></path><path class="cls-25" d="M177.84,642.66a2.18,2.18,0,0,0,1.2,1.15.57.57,0,0,0,.53.18,2.32,2.32,0,0,0,1.23-.66A1.57,1.57,0,0,0,181,642a2,2,0,0,0-2.23-1.66l-.18,0a1.48,1.48,0,0,0-.93,1.89v0A2.49,2.49,0,0,0,177.84,642.66Z" transform="translate(387.67 0.44)"></path><path class="cls-25" d="M197,695.93a2.57,2.57,0,0,0,2.2,2.76,3.11,3.11,0,0,0,.61,0,1.6,1.6,0,0,0,1.2-1,1.64,1.64,0,0,0,.14-.22,2.11,2.11,0,0,0-.68-2.31C199.54,694.31,197.24,694.41,197,695.93Z" transform="translate(387.67 0.44)"></path><path class="cls-25" d="M180,693.41a2.4,2.4,0,0,0,1.55,1.81.55.55,0,0,0,.47.14c.83-.23,1.94-.59,1.86-1.67a2.34,2.34,0,0,0-2.33-2.19,1.69,1.69,0,0,0-1.56,1.81.19.19,0,0,1,0,.08Z" transform="translate(387.67 0.44)"></path><path class="cls-25" d="M193.4,712.4a2.13,2.13,0,0,0,1.33,1.21.57.57,0,0,0,.47.13,2.09,2.09,0,0,0,1.18-.57,1.43,1.43,0,0,0,.24-1.28,2,2,0,0,0-2.2-1.66,1.83,1.83,0,0,0-.32.07,1.48,1.48,0,0,0-.77,1.94v0Z" transform="translate(387.67 0.44)"></path><path class="cls-25" d="M178.33,708.66c.13.77.93,1.86,1.71,1.8a.66.66,0,0,0,.58.22c1-.28,1.84-.86,1.56-2a2.32,2.32,0,0,0-2.37-1.93A1.74,1.74,0,0,0,178.33,708.66Z" transform="translate(387.67 0.44)"></path><path class="cls-25" d="M169,676.27c.09.69.95,2,1.78,2a.51.51,0,0,0,.38.07c.93-.27,1.81-.78,1.6-1.93a2.32,2.32,0,0,0-2.38-2A1.73,1.73,0,0,0,169,676.27Z" transform="translate(387.67 0.44)"></path><path class="cls-25" d="M186,677.79a2.45,2.45,0,0,0,1.55,1.11.56.56,0,0,0,.34.05c2.3-.5.39-4.55-1.59-3.75C185.26,675.63,185.49,677,186,677.79Z" transform="translate(387.67 0.44)"></path><path class="cls-25" d="M201.28,679.38a2.17,2.17,0,0,0,.93,2.85,2.07,2.07,0,0,0,.34.15,1.36,1.36,0,0,0,1.29-.32,2.09,2.09,0,0,0,.25-.26,1,1,0,0,0,.27-.33,1.84,1.84,0,0,0-.24-1.77,1.75,1.75,0,0,0-2.35-.73A1.6,1.6,0,0,0,201.28,679.38Z" transform="translate(387.67 0.44)"></path><path class="cls-25" d="M189.69,661.78a2.19,2.19,0,0,0,1.31,1.3,1.35,1.35,0,0,0,.53,0,.56.56,0,0,0,.44,0,2,2,0,0,0,1-.78,1.7,1.7,0,0,0,0-1.43,1.78,1.78,0,0,0-2.11-1.32l-.22.06a1.55,1.55,0,0,0-1,1.94v0C189.64,661.67,189.67,661.73,189.69,661.78Z" transform="translate(387.67 0.44)"></path><path class="cls-25" d="M210.45,715.05c.37.81,1.52,1.92,2.39,1.2a.69.69,0,0,0,.19-.1,1.31,1.31,0,0,0,.48-1.17c-.1-1.05-1.12-2.4-2.27-2.15S210.06,714.17,210.45,715.05Z" transform="translate(387.67 0.44)"></path><path class="cls-25" d="M214.07,699.23a2.18,2.18,0,0,0,1.2,1.15.59.59,0,0,0,.53.18,2.32,2.32,0,0,0,1.23-.66,1.58,1.58,0,0,0,.21-1.32,2,2,0,0,0-2.23-1.65l-.18,0a1.49,1.49,0,0,0-.93,1.89l0,0A2.41,2.41,0,0,0,214.07,699.23Z" transform="translate(387.67 0.44)"></path><path class="cls-25" d="M201.18,613.5a2.57,2.57,0,0,0,2.2,2.76,3.11,3.11,0,0,0,.61,0,1.56,1.56,0,0,0,1.19-1,.74.74,0,0,0,.14-.22,2.1,2.1,0,0,0-.67-2.3C203.69,611.88,201.4,612,201.18,613.5Z" transform="translate(387.67 0.44)"></path><path class="cls-25" d="M184.14,611a2.38,2.38,0,0,0,1.54,1.82.57.57,0,0,0,.47.13c.84-.23,1.94-.59,1.87-1.67a2.36,2.36,0,0,0-2.34-2.19,1.68,1.68,0,0,0-1.55,1.81.25.25,0,0,0,0,.08Z" transform="translate(387.67 0.44)"></path><path class="cls-25" d="M197.56,630a2.11,2.11,0,0,0,1.32,1.21.59.59,0,0,0,.48.13,2.09,2.09,0,0,0,1.17-.57,1.37,1.37,0,0,0,.24-1.28,2,2,0,0,0-2.2-1.66,1.83,1.83,0,0,0-.32.07,1.48,1.48,0,0,0-.77,1.94v0Z" transform="translate(387.67 0.44)"></path><path class="cls-25" d="M182.48,626.23c.14.77.93,1.86,1.72,1.8a.63.63,0,0,0,.57.22c1-.28,1.84-.86,1.57-2a2.33,2.33,0,0,0-2.38-1.93A1.75,1.75,0,0,0,182.48,626.23Z" transform="translate(387.67 0.44)"></path><path class="cls-25" d="M190.14,595.36a2.41,2.41,0,0,0,1.54,1.1.46.46,0,0,0,.34,0c2.3-.49.39-4.54-1.59-3.74C189.41,593.2,189.64,594.57,190.14,595.36Z" transform="translate(387.67 0.44)"></path><path class="cls-25" d="M172.25,605.92a2.4,2.4,0,0,1,.86,1.74,1.75,1.75,0,0,1-1,1.57.3.3,0,0,1-.13.09l-.23,0-.22.06a.63.63,0,0,1-.5-.15,2.49,2.49,0,0,1-1.29-1.52Z" transform="translate(387.67 0.44)"></path><path class="cls-25" d="M205.44,597a2.17,2.17,0,0,0,.92,2.85,2.52,2.52,0,0,0,.34.15,1.35,1.35,0,0,0,1.29-.32,2.09,2.09,0,0,0,.25-.26,1,1,0,0,0,.28-.33,1.82,1.82,0,0,0-.25-1.77,1.73,1.73,0,0,0-2.34-.73A1.49,1.49,0,0,0,205.44,597Z" transform="translate(387.67 0.44)"></path><path class="cls-25" d="M214.61,632.62c.37.81,1.52,1.91,2.39,1.2l.19-.1a1.28,1.28,0,0,0,.47-1.17c-.1-1-1.12-2.4-2.27-2.15S214.21,631.74,214.61,632.62Z" transform="translate(387.67 0.44)"></path><path class="cls-25" d="M218.22,616.8a2.27,2.27,0,0,0,1.2,1.16.63.63,0,0,0,.54.17,2.33,2.33,0,0,0,1.22-.66,1.53,1.53,0,0,0,.21-1.31,2,2,0,0,0-2.23-1.66l-.18,0a1.48,1.48,0,0,0-.92,1.89v0A2.41,2.41,0,0,0,218.22,616.8Z" transform="translate(387.67 0.44)"></path><path class="cls-25" d="M195.18,644.94a2.61,2.61,0,0,0,.72,1.83,1.66,1.66,0,0,0,2.3.49h0a1.61,1.61,0,0,0,.28-.24.53.53,0,0,0,.07-.37A2.15,2.15,0,0,0,197.2,644a1.94,1.94,0,0,0-1.28,0A1.31,1.31,0,0,0,195.18,644.94Z" transform="translate(387.67 0.44)"></path><path class="cls-25" d="M210.75,648.5a1.48,1.48,0,0,1,.78,0l-2.13,2s0-.08,0-.11A1.74,1.74,0,0,1,210.75,648.5Z" transform="translate(387.67 0.44)"></path><path class="cls-25" d="M205.89,664.17a2.58,2.58,0,0,0,1.34,1.68.64.64,0,0,0,.5.15l.22-.06.23-.05a.42.42,0,0,0,.14-.09,1.76,1.76,0,0,0,1-1.57,2.09,2.09,0,0,0-1.94-2.11h-.22a1.59,1.59,0,0,0-1.33,1.83s0,0,0,.07Z" transform="translate(387.67 0.44)"></path><path class="cls-25" d="M245.41,587.34a1.84,1.84,0,0,1,.29,1.86l-.14.21a1.55,1.55,0,0,1-1.2,1,2.23,2.23,0,0,1-2.14-.82Z" transform="translate(387.67 0.44)"></path><path class="cls-25" d="M224.52,585.12a2.38,2.38,0,0,0,1.54,1.82.59.59,0,0,0,.48.13c.83-.23,1.93-.59,1.86-1.67a2.34,2.34,0,0,0-2.34-2.19,1.69,1.69,0,0,0-1.55,1.81.25.25,0,0,0,0,.08Z" transform="translate(387.67 0.44)"></path><path class="cls-25" d="M237.94,604.11a2.11,2.11,0,0,0,1.33,1.21.57.57,0,0,0,.47.13,2.09,2.09,0,0,0,1.17-.57,1.37,1.37,0,0,0,.24-1.28,2,2,0,0,0-2.2-1.66,2.06,2.06,0,0,0-.32.07,1.48,1.48,0,0,0-.77,1.94v0Z" transform="translate(387.67 0.44)"></path><path class="cls-25" d="M224.17,602.1l2.55-1.76h0c.27,1.18-.6,1.77-1.57,2a.65.65,0,0,1-.58-.22A.93.93,0,0,1,224.17,602.1Z" transform="translate(387.67 0.44)"></path><path class="cls-25" d="M223.7,598.68l-.66.66A1.61,1.61,0,0,1,223.7,598.68Z" transform="translate(387.67 0.44)"></path><path class="cls-25" d="M258.6,590.94a2.15,2.15,0,0,0,1.2,1.15.59.59,0,0,0,.53.18,2.32,2.32,0,0,0,1.23-.66,1.53,1.53,0,0,0,.2-1.31,2,2,0,0,0-2.22-1.66l-.18,0a1.49,1.49,0,0,0-.93,1.89l0,0A1.61,1.61,0,0,0,258.6,590.94Z" transform="translate(387.67 0.44)"></path><path class="cls-25" d="M235.57,619.08a2.6,2.6,0,0,0,.71,1.83,1.67,1.67,0,0,0,2.31.49h0a1.18,1.18,0,0,0,.27-.23.48.48,0,0,0,.07-.37,2.15,2.15,0,0,0-1.34-2.64,2.11,2.11,0,0,0-1.29,0A1.32,1.32,0,0,0,235.57,619.08Z" transform="translate(387.67 0.44)"></path><g><path class="cls-25" d="M228.87,653.33a2.57,2.57,0,0,0,2.2,2.75,2.08,2.08,0,0,0,.61,0,1.56,1.56,0,0,0,1.2-1,1,1,0,0,0,.14-.21,2.11,2.11,0,0,0-.67-2.31C231.39,651.7,229.09,651.81,228.87,653.33Z" transform="translate(387.67 0.44)"></path><path class="cls-25" d="M213.45,648.89a1.53,1.53,0,0,1,.37,0,2.49,2.49,0,0,1,1.9,2.19c.05.88-.67,1.28-1.39,1.52l-.28.09A17.59,17.59,0,0,1,213.45,648.89Z" transform="translate(387.67 0.44)"></path><path class="cls-25" d="M225.25,669.79a2.12,2.12,0,0,0,1.33,1.22.57.57,0,0,0,.47.13,2.09,2.09,0,0,0,1.18-.57,1.46,1.46,0,0,0,.24-1.29,2,2,0,0,0-2.2-1.66,1.67,1.67,0,0,0-.32.08,1.47,1.47,0,0,0-.77,1.94v0Z" transform="translate(387.67 0.44)"></path><path class="cls-25" d="M233.14,636.78a2.17,2.17,0,0,0,.92,2.85,2.07,2.07,0,0,0,.34.15,1.36,1.36,0,0,0,1.29-.33l.25-.25a1.1,1.1,0,0,0,.28-.33,1.86,1.86,0,0,0-.25-1.78,1.73,1.73,0,0,0-2.34-.72A1.49,1.49,0,0,0,233.14,636.78Z" transform="translate(387.67 0.44)"></path><path class="cls-25" d="M242.3,672.45c.37.81,1.52,1.91,2.39,1.2l.19-.1a1.29,1.29,0,0,0,.48-1.17c-.1-1-1.12-2.4-2.27-2.15S241.91,671.56,242.3,672.45Z" transform="translate(387.67 0.44)"></path><path class="cls-25" d="M245.92,656.62a2.2,2.2,0,0,0,1.2,1.16.59.59,0,0,0,.53.17,2.25,2.25,0,0,0,1.23-.66,1.56,1.56,0,0,0,.21-1.31,2,2,0,0,0-2.23-1.65l-.18,0a1.5,1.5,0,0,0-.93,1.89l0,0A1.66,1.66,0,0,0,245.92,656.62Z" transform="translate(387.67 0.44)"></path><path class="cls-25" d="M222.88,684.76a2.59,2.59,0,0,0,.72,1.83,1.65,1.65,0,0,0,2.3.49h0a2.15,2.15,0,0,0,.28-.23.53.53,0,0,0,.07-.37,2.16,2.16,0,0,0-1.35-2.64,2.07,2.07,0,0,0-1.28,0A1.33,1.33,0,0,0,222.88,684.76Z" transform="translate(387.67 0.44)"></path><path class="cls-25" d="M265.1,709.9a2.57,2.57,0,0,0,2.2,2.75,2.08,2.08,0,0,0,.61,0,1.57,1.57,0,0,0,1.2-1l.14-.21a2.1,2.1,0,0,0-.68-2.31C267.62,708.27,265.32,708.37,265.1,709.9Z" transform="translate(387.67 0.44)"></path><path class="cls-25" d="M248.06,707.37a2.42,2.42,0,0,0,1.55,1.82.57.57,0,0,0,.47.13c.83-.22,1.93-.58,1.86-1.67a2.33,2.33,0,0,0-2.34-2.18,1.69,1.69,0,0,0-1.55,1.8.25.25,0,0,1,0,.08Z" transform="translate(387.67 0.44)"></path><path class="cls-25" d="M246.41,722.63c.13.76.93,1.86,1.71,1.79a.64.64,0,0,0,.58.22c1-.27,1.84-.86,1.56-2a2.31,2.31,0,0,0-2.37-1.92A1.73,1.73,0,0,0,246.41,722.63Z" transform="translate(387.67 0.44)"></path><path class="cls-25" d="M237.08,690.24c.09.69.95,2,1.78,2a.5.5,0,0,0,.38.06c.93-.26,1.8-.77,1.6-1.92a2.32,2.32,0,0,0-2.38-2A1.73,1.73,0,0,0,237.08,690.24Z" transform="translate(387.67 0.44)"></path><path class="cls-25" d="M254.06,691.75a2.38,2.38,0,0,0,1.55,1.11.56.56,0,0,0,.34,0c2.3-.5.39-4.55-1.59-3.74C253.34,689.59,253.57,691,254.06,691.75Z" transform="translate(387.67 0.44)"></path><path class="cls-25" d="M233.59,704a2.61,2.61,0,0,0,1.33,1.69.66.66,0,0,0,.5.14l.23-.05a1,1,0,0,0,.23-.06.22.22,0,0,0,.13-.08,1.74,1.74,0,0,0,1-1.57,2.08,2.08,0,0,0-1.93-2.12h-.22a1.6,1.6,0,0,0-1.33,1.83s0,.05,0,.07Z" transform="translate(387.67 0.44)"></path><path class="cls-25" d="M269.36,693.35a2.18,2.18,0,0,0,.93,2.85,2.07,2.07,0,0,0,.34.15,1.37,1.37,0,0,0,1.29-.33l.25-.25a1,1,0,0,0,.27-.34,1.84,1.84,0,0,0-.24-1.77,1.76,1.76,0,0,0-2.35-.73A1.79,1.79,0,0,0,269.36,693.35Z" transform="translate(387.67 0.44)"></path><path class="cls-25" d="M232.49,718.24a1.84,1.84,0,0,1,2.52.64,2.06,2.06,0,0,1,.21.48,1.52,1.52,0,0,1-.08,1.5v0h0a1.87,1.87,0,0,1-1.26.87h0c-.6-1-1.2-2-1.83-3A1.83,1.83,0,0,1,232.49,718.24Z" transform="translate(387.67 0.44)"></path><path class="cls-25" d="M257.77,675.75a2.2,2.2,0,0,0,1.31,1.29,1.06,1.06,0,0,0,.53,0,.49.49,0,0,0,.44,0,2,2,0,0,0,1-.78,1.74,1.74,0,0,0,0-1.43,1.8,1.8,0,0,0-2.11-1.32l-.22.06a1.55,1.55,0,0,0-1,1.94v.05A1.22,1.22,0,0,0,257.77,675.75Z" transform="translate(387.67 0.44)"></path><path class="cls-25" d="M220.51,700a2.39,2.39,0,0,1,1,1.39,2.42,2.42,0,0,1,.07.47C221.19,701.26,220.84,700.64,220.51,700Z" transform="translate(387.67 0.44)"></path><path class="cls-25" d="M282.15,713.19a2.17,2.17,0,0,0,1.2,1.16.59.59,0,0,0,.53.17,2.32,2.32,0,0,0,1.23-.66,1.52,1.52,0,0,0,.2-1.31,2,2,0,0,0-2.22-1.65l-.18,0a1.49,1.49,0,0,0-.93,1.89v0A1.68,1.68,0,0,0,282.15,713.19Z" transform="translate(387.67 0.44)"></path><path class="cls-25" d="M269.26,627.47a2.56,2.56,0,0,0,2.2,2.75,2,2,0,0,0,.6,0,1.54,1.54,0,0,0,1.2-1,1,1,0,0,0,.14-.21,2.11,2.11,0,0,0-.67-2.31C271.77,625.84,269.47,625.94,269.26,627.47Z" transform="translate(387.67 0.44)"></path><path class="cls-25" d="M252.22,624.94a2.38,2.38,0,0,0,1.54,1.82.54.54,0,0,0,.47.13c.84-.22,1.94-.58,1.87-1.66a2.35,2.35,0,0,0-2.34-2.19,1.68,1.68,0,0,0-1.55,1.8.19.19,0,0,0,0,.08Z" transform="translate(387.67 0.44)"></path><path class="cls-25" d="M265.64,643.93a2.06,2.06,0,0,0,1.32,1.21.59.59,0,0,0,.47.14,2,2,0,0,0,1.18-.58,1.43,1.43,0,0,0,.24-1.28,2,2,0,0,0-2.2-1.66,1.87,1.87,0,0,0-.32.08,1.48,1.48,0,0,0-.77,1.94v0A.54.54,0,0,0,265.64,643.93Z" transform="translate(387.67 0.44)"></path><path class="cls-25" d="M250.56,640.2c.13.76.93,1.86,1.71,1.79a.65.65,0,0,0,.58.22c1-.27,1.84-.86,1.56-2a2.31,2.31,0,0,0-2.37-1.92A1.73,1.73,0,0,0,250.56,640.2Z" transform="translate(387.67 0.44)"></path><path class="cls-25" d="M258.21,609.32a2.43,2.43,0,0,0,1.55,1.11.51.51,0,0,0,.34.05c2.3-.5.39-4.54-1.59-3.74C257.49,607.16,257.72,608.54,258.21,609.32Z" transform="translate(387.67 0.44)"></path><path class="cls-25" d="M240.33,619.89a2.38,2.38,0,0,1,.86,1.73,1.77,1.77,0,0,1-1,1.58.22.22,0,0,1-.13.08,1,1,0,0,1-.23.06l-.23.06a.69.69,0,0,1-.5-.15,2.53,2.53,0,0,1-1.28-1.53C238.63,621.11,239.48,620.49,240.33,619.89Z" transform="translate(387.67 0.44)"></path><path class="cls-25" d="M273.52,610.92a2.17,2.17,0,0,0,.92,2.85,2.07,2.07,0,0,0,.34.15,1.36,1.36,0,0,0,1.29-.33l.25-.25a1.1,1.1,0,0,0,.28-.33,1.86,1.86,0,0,0-.25-1.78,1.74,1.74,0,0,0-2.34-.73A1.66,1.66,0,0,0,273.52,610.92Z" transform="translate(387.67 0.44)"></path><path class="cls-25" d="M282.69,646.58c.37.82,1.52,1.92,2.39,1.2a.81.81,0,0,0,.18-.1,1.24,1.24,0,0,0,.48-1.16c-.1-1-1.12-2.4-2.27-2.16S282.3,645.7,282.69,646.58Z" transform="translate(387.67 0.44)"></path><path class="cls-25" d="M286.3,630.76a2.2,2.2,0,0,0,1.2,1.16.62.62,0,0,0,.53.18,2.34,2.34,0,0,0,1.23-.67,1.56,1.56,0,0,0,.21-1.31,2,2,0,0,0-2.23-1.65l-.18,0a1.5,1.5,0,0,0-.93,1.89l0,0A1.66,1.66,0,0,0,286.3,630.76Z" transform="translate(387.67 0.44)"></path><path class="cls-25" d="M263.26,658.9a2.59,2.59,0,0,0,.72,1.83,1.66,1.66,0,0,0,2.3.49h0a1.61,1.61,0,0,0,.28-.24.51.51,0,0,0,.07-.36,2.16,2.16,0,0,0-1.35-2.64,2,2,0,0,0-1.28,0A1.36,1.36,0,0,0,263.26,658.9Z" transform="translate(387.67 0.44)"></path><path class="cls-25" d="M278.83,662.47a1.48,1.48,0,0,1,.78,0l-2.13,2s0-.07,0-.11A1.74,1.74,0,0,1,278.83,662.47Z" transform="translate(387.67 0.44)"></path><path class="cls-25" d="M274,678.13a2.58,2.58,0,0,0,1.33,1.69.69.69,0,0,0,.5.14l.23-.05.23-.06a.41.41,0,0,0,.13-.08,1.76,1.76,0,0,0,1-1.58,2.08,2.08,0,0,0-1.93-2.11h-.22a1.6,1.6,0,0,0-1.33,1.83s0,.05,0,.07Z" transform="translate(387.67 0.44)"></path><path class="cls-25" d="M277.37,665.07a2.4,2.4,0,0,0,1.55,1.82.53.53,0,0,0,.47.13c.83-.22,1.93-.58,1.86-1.66a2.33,2.33,0,0,0-2.34-2.19,1.69,1.69,0,0,0-1.55,1.8s0,.06,0,.08Z" transform="translate(387.67 0.44)"></path><path class="cls-25" d="M306,618.07a2.09,2.09,0,0,0,1.32,1.21.6.6,0,0,0,.48.14,2,2,0,0,0,1.17-.58,1.4,1.4,0,0,0,.24-1.28,2,2,0,0,0-2.2-1.66,1.87,1.87,0,0,0-.32.08,1.48,1.48,0,0,0-.77,1.94v0A.83.83,0,0,0,306,618.07Z" transform="translate(387.67 0.44)"></path><path class="cls-25" d="M292.25,616.07l2.55-1.77h0c.27,1.18-.6,1.77-1.57,2a.67.67,0,0,1-.58-.22A.91.91,0,0,1,292.25,616.07Z" transform="translate(387.67 0.44)"></path><path class="cls-25" d="M291.78,612.64l-.66.66A1.74,1.74,0,0,1,291.78,612.64Z" transform="translate(387.67 0.44)"></path><path class="cls-25" d="M303.64,633a2.59,2.59,0,0,0,.72,1.83,1.66,1.66,0,0,0,2.3.49h0a1.55,1.55,0,0,0,.27-.24.51.51,0,0,0,.07-.36,2.16,2.16,0,0,0-1.34-2.64,2,2,0,0,0-1.29,0A1.36,1.36,0,0,0,303.64,633Z" transform="translate(387.67 0.44)"></path><path class="cls-25" d="M290.65,696a2.53,2.53,0,0,0,1.33,1.68.65.65,0,0,0,.5.15.9.9,0,0,0,.22-.06l.24,0a.38.38,0,0,0,.13-.09,1.76,1.76,0,0,0,1-1.57,2.08,2.08,0,0,0-1.94-2.11h-.21a1.61,1.61,0,0,0-1.34,1.83s0,.05,0,.07A.4.4,0,0,0,290.65,696Z" transform="translate(387.67 0.44)"></path></g><g><path class="cls-25" d="M313.26,632.46a2.56,2.56,0,0,0,1,3.38,2.13,2.13,0,0,0,.56.23,1.56,1.56,0,0,0,1.49-.45l.21-.15a2.1,2.1,0,0,0,.25-2.39C316.21,631.91,314,631.13,313.26,632.46Z" transform="translate(387.67 0.44)"></path><path class="cls-25" d="M300.69,622.48a1.33,1.33,0,0,1,.34.16,2.48,2.48,0,0,1,.92,2.74c-.28.83-1.1.93-1.86.88l-.29,0A18,18,0,0,1,300.69,622.48Z" transform="translate(387.67 0.44)"></path><path class="cls-25" d="M303.65,646.31a2.12,2.12,0,0,0,.76,1.62.59.59,0,0,0,.39.3,2.14,2.14,0,0,0,1.3-.08,1.42,1.42,0,0,0,.71-1.1,2,2,0,0,0-1.4-2.37,1.13,1.13,0,0,0-.32,0,1.46,1.46,0,0,0-1.45,1.5v0A.81.81,0,0,0,303.65,646.31Z" transform="translate(387.67 0.44)"></path><path class="cls-25" d="M323.5,618.78a2.18,2.18,0,0,0-.23,3l.26.26a1.34,1.34,0,0,0,1.32.2l.32-.14a1.2,1.2,0,0,0,.39-.2,1.86,1.86,0,0,0,.44-1.73,1.73,1.73,0,0,0-1.89-1.57A1.67,1.67,0,0,0,323.5,618.78Z" transform="translate(387.67 0.44)"></path><path class="cls-25" d="M318.4,655.25c0,.89.68,2.35,1.76,2l.21,0a1.27,1.27,0,0,0,.88-.9c.31-1-.12-2.64-1.27-2.85S318.38,654.29,318.4,655.25Z" transform="translate(387.67 0.44)"></path><path class="cls-25" d="M327.77,642a2.24,2.24,0,0,0,.67,1.52.58.58,0,0,0,.42.37,2.37,2.37,0,0,0,1.39-.15,1.51,1.51,0,0,0,.69-1.13,2,2,0,0,0-1.43-2.38l-.18,0a1.5,1.5,0,0,0-1.58,1.4v0A2.3,2.3,0,0,0,327.77,642Z" transform="translate(387.67 0.44)"></path><path class="cls-25" d="M295.75,659.25a2.56,2.56,0,0,0,0,2,1.67,1.67,0,0,0,1.94,1.33h0a1.35,1.35,0,0,0,.34-.11.58.58,0,0,0,.2-.31,2.16,2.16,0,0,0-.24-3,2,2,0,0,0-1.18-.5A1.34,1.34,0,0,0,295.75,659.25Z" transform="translate(387.67 0.44)"></path><path class="cls-25" d="M325.22,698.56a2.56,2.56,0,0,0,1,3.38,2.87,2.87,0,0,0,.57.24,1.6,1.6,0,0,0,1.49-.46l.21-.14a2.14,2.14,0,0,0,.25-2.4C328.17,698,326,697.23,325.22,698.56Z" transform="translate(387.67 0.44)"></path><path class="cls-25" d="M310.43,689.74a2.37,2.37,0,0,0,.74,2.27.55.55,0,0,0,.38.3c.86.11,2,.19,2.36-.84a2.34,2.34,0,0,0-1.33-2.91,1.69,1.69,0,0,0-2.12,1.08l0,.08Z" transform="translate(387.67 0.44)"></path><path class="cls-25" d="M315.61,712.41a2.07,2.07,0,0,0,.76,1.62.59.59,0,0,0,.39.3,2,2,0,0,0,1.3-.08,1.42,1.42,0,0,0,.71-1.09,2,2,0,0,0-1.4-2.37,1.65,1.65,0,0,0-.32-.06,1.48,1.48,0,0,0-1.45,1.5v0A.76.76,0,0,0,315.61,712.41Z" transform="translate(387.67 0.44)"></path><path class="cls-25" d="M303.09,703.22c-.17.75.15,2.07.9,2.31a.68.68,0,0,0,.45.42c1,.11,2-.1,2.22-1.29A2.31,2.31,0,0,0,305.2,702,1.73,1.73,0,0,0,303.09,703.22Z" transform="translate(387.67 0.44)"></path><path class="cls-25" d="M306.8,669.72c-.18.67.12,2.2.9,2.47a.49.49,0,0,0,.33.21c1,.11,2,0,2.2-1.17a2.31,2.31,0,0,0-1.44-2.76A1.73,1.73,0,0,0,306.8,669.72Z" transform="translate(387.67 0.44)"></path><path class="cls-25" d="M321.92,677.58a2.41,2.41,0,0,0,1,1.61.59.59,0,0,0,.29.18c2.32.42,2.1-4,0-4.07C322.08,675.31,321.77,676.66,321.92,677.58Z" transform="translate(387.67 0.44)"></path><path class="cls-25" d="M298.34,681.1a2.56,2.56,0,0,0,.59,2.07.62.62,0,0,0,.4.32l.22,0,.24,0a.25.25,0,0,0,.15,0,1.78,1.78,0,0,0,1.55-1.07,2.08,2.08,0,0,0-1-2.69l-.2-.08a1.59,1.59,0,0,0-1.92,1.18.64.64,0,0,1,0,.07S298.35,681.05,298.34,681.1Z" transform="translate(387.67 0.44)"></path><path class="cls-25" d="M336.4,688.42a1.49,1.49,0,0,1-.91-.28l-.26-.27a2.18,2.18,0,0,1,.24-3,1,1,0,0,1,.18-.08Z" transform="translate(387.67 0.44)"></path><path class="cls-25" d="M291.89,693.86A1.83,1.83,0,0,1,294,695.4a2,2,0,0,1,0,.54,1.53,1.53,0,0,1-.65,1.35h0a1.81,1.81,0,0,1-1.49.32h0c-.17-1.17-.34-2.34-.54-3.5A1.83,1.83,0,0,1,291.89,693.86Z" transform="translate(387.67 0.44)"></path><path class="cls-25" d="M287.75,672.45a2.45,2.45,0,0,1,.36,1.65,1.83,1.83,0,0,1-.12.46C287.91,673.85,287.82,673.15,287.75,672.45Z" transform="translate(387.67 0.44)"></path><path class="cls-25" d="M340.23,706.65a1.57,1.57,0,0,0-.52,1.09,1.46,1.46,0,0,0,0,.36,2.19,2.19,0,0,0,.66,1.53.59.59,0,0,0,.43.36l.11,0Z" transform="translate(387.67 0.44)"></path><path class="cls-25" d="M350.83,637.77a2.12,2.12,0,0,0,.77,1.63.59.59,0,0,0,.39.3,2.07,2.07,0,0,0,1.3-.09,1.43,1.43,0,0,0,.71-1.09,2,2,0,0,0-1.4-2.37,1.19,1.19,0,0,0-.32,0,1.47,1.47,0,0,0-1.46,1.49v0A.76.76,0,0,1,350.83,637.77Z" transform="translate(387.67 0.44)"></path><path class="cls-25" d="M338.32,628.58c-.17.76.15,2.07.9,2.31a.63.63,0,0,0,.45.42c1,.12,2-.09,2.22-1.29a2.31,2.31,0,0,0-1.46-2.68A1.72,1.72,0,0,0,338.32,628.58Z" transform="translate(387.67 0.44)"></path><path class="cls-25" d="M365.59,646.71c0,.9.68,2.35,1.76,2a.75.75,0,0,0,.21,0,1.27,1.27,0,0,0,.88-.9c.31-1-.12-2.64-1.27-2.85S365.56,645.75,365.59,646.71Z" transform="translate(387.67 0.44)"></path><path class="cls-25" d="M375,633.46a2.16,2.16,0,0,0,.67,1.53.59.59,0,0,0,.42.36,2.29,2.29,0,0,0,1.39-.14,1.56,1.56,0,0,0,.69-1.14,2,2,0,0,0-1.43-2.38l-.18,0a1.49,1.49,0,0,0-1.58,1.39v.05A1.45,1.45,0,0,0,375,633.46Z" transform="translate(387.67 0.44)"></path><path class="cls-25" d="M342.94,650.71a2.56,2.56,0,0,0,0,2,1.65,1.65,0,0,0,1.94,1.33h0a1.42,1.42,0,0,0,.35-.11.58.58,0,0,0,.2-.31,2.16,2.16,0,0,0-.24-3,2,2,0,0,0-1.18-.51A1.32,1.32,0,0,0,342.94,650.71Z" transform="translate(387.67 0.44)"></path><path class="cls-25" d="M398.94,631.05a.7.7,0,0,0,.23.11,2,2,0,0,0,.93,0Z" transform="translate(387.67 0.44)"></path><path class="cls-25" d="M390.13,642.17a2.59,2.59,0,0,0,0,2,1.67,1.67,0,0,0,1.94,1.33h0a2,2,0,0,0,.34-.12.51.51,0,0,0,.2-.31,2.15,2.15,0,0,0-.24-2.95,2,2,0,0,0-1.18-.51A1.33,1.33,0,0,0,390.13,642.17Z" transform="translate(387.67 0.44)"></path><path class="cls-25" d="M295.27,715.62a1.89,1.89,0,0,0-1,2.46,1.87,1.87,0,0,0,.36.59A1.22,1.22,0,0,0,296,719a1.46,1.46,0,0,0,.38-.18,1.25,1.25,0,0,0,1-1.16,2.21,2.21,0,0,0-.7-1.91A1.56,1.56,0,0,0,295.27,715.62Z" transform="translate(387.67 0.44)"></path></g></g></g><path class="cls-24" d="M94,409.83a25.92,25.92,0,0,0-24.64.8,1.29,1.29,0,0,0,1.3,2.23,23.24,23.24,0,0,1,22-.81C94.21,412.8,95.51,410.57,94,409.83Z" transform="translate(387.67 0.44)"></path><path class="cls-5" d="M462.31,777.59c26.25-12.19,41.2-22.1,43.88-52.51,4.45-50.51,1.36-103.2-.91-153.86-.58-13.07-18.19-11.75-23.15-10.14l-94.77,30.85c-17.69,5.76-32.87,9.22-46.84,22.35-13.17,12.39-17,35.9-20.26,53.1-8.42,43.88-5.59,89-2.63,133.31.31,4.76.73,9.8,3.53,13.66,3.09,4.24,8.43,6.16,13.55,7.31,23.66,5.3,39.13-3,59.49-12.42Q428.27,793.43,462.31,777.59Z" transform="translate(387.67 0.44)"></path><path class="cls-26" d="M387.92,679.81c-.37-13.39,0-27.65-5.58-40.14-5.1-11.47-17.25-21.15-30.36-18.44-1.63.34-.94,2.83.68,2.49,10.48-2.16,20.57,5,25.66,13.71,6,10.28,6.41,22.78,6.78,34.35q1.29,40.32.74,80.66-.16,11.41-.46,22.82c-.1,3.75-.22,7.49-.34,11.24-.07,1.93-.13,3.86-.2,5.78,0,.79-.08,1.58-.07,2.37v.13c-1.63,0-1.93,2.2-.68,3.24a1.81,1.81,0,0,0,2.42,0c1-.85.86-2.18.84-3.34-.07-3.77.26-7.59.37-11.36s.23-7.71.33-11.57q.56-22.8.53-45.63Q388.55,702.95,387.92,679.81Z" transform="translate(387.67 0.44)"></path><path class="cls-27" d="M351.11,643.18a4.27,4.27,0,0,0-3.57-.36,6.11,6.11,0,0,0-3.14,2.87,8,8,0,0,0-.75,6,6.34,6.34,0,0,0,.36,3c1.13,2.8,4.36,3.55,6.92,2.21s3.58-4.54,3.51-7.29C354.38,647.2,353.26,644.44,351.11,643.18Z" transform="translate(387.67 0.44)"></path><path class="cls-28" d="M479.36,479.5c-15.75-14.84-38.2-17.06-56.92-26.41-1.48-.74-2.79,1.49-1.3,2.23,18.45,9.21,40.9,11.39,56.4,26C478.74,482.46,480.57,480.64,479.36,479.5Z" transform="translate(387.67 0.44)"></path><g><g><path class="cls-8" d="M-186.61,808.45a1.71,1.71,0,0,1-1.86-1.54,1.09,1.09,0,0,1,0-.18l1.14-96.29a1.71,1.71,0,0,1,1.73-1.68,1.7,1.7,0,0,1,1.68,1.72h0l-1.14,96.29A1.69,1.69,0,0,1-186.61,808.45Z" transform="translate(387.67 0.44)"></path><path class="cls-8" d="M-227.41,824.65a2,2,0,0,1-.34,0,1.71,1.71,0,0,1-1.33-2l23.87-116.94a1.7,1.7,0,0,1,2-1.33,1.7,1.7,0,0,1,1.33,2l-23.86,116.95A1.72,1.72,0,0,1-227.41,824.65Z" transform="translate(387.67 0.44)"></path><path class="cls-8" d="M-132.12,824.65a1.71,1.71,0,0,1-1.67-1.36l-23.87-116.95a1.71,1.71,0,0,1,1.33-2,1.7,1.7,0,0,1,2,1.33l23.88,116.94a1.72,1.72,0,0,1-1.33,2A2.07,2.07,0,0,1-132.12,824.65Z" transform="translate(387.67 0.44)"></path><path class="cls-15" d="M-137.32,700.54a14.78,14.78,0,0,0-2.71-3.62c-5.28-5.16-14.17-6.95-21.18-8.16A127.15,127.15,0,0,0-189,687.59c-3.76.26-25,3.59-29.76,9.9-8.86,11.8,5.58,20.57,15.27,23.32,13.91,4,29.78,4.6,44.06,2.52a47.45,47.45,0,0,0,16.4-5.89c3.75-2.32,6.84-6.12,7.18-10.51A11.84,11.84,0,0,0-137.32,700.54Z" transform="translate(387.67 0.44)"></path><path class="cls-8" d="M-145.52,755a.76.76,0,0,0-.38-.71c-.23-.14-.48-.23-.71-.35a7.11,7.11,0,0,0-2-1,.72.72,0,0,0-.41,0c-4.66-1.54-9.89-1.12-14.73-1.25-8.71-.23-17.26-1-26-.38-7.23.49-17.53.24-23.41,5.14-7.67,6.38,6,10.62,10.24,11.51a131.5,131.5,0,0,0,40.26,2.33c5.68-.62,12.85-2.13,16.41-7.18C-144.31,760.27-143.88,757.13-145.52,755Zm-5.4,9.31c-2.81,2.14-6.51,3.12-9.91,3.69-7.23,1.22-14.95.89-22.23.45a130.49,130.49,0,0,1-16.6-2.08c-3-.57-11.27-1.66-11.78-5.65-.81-6.4,16.48-6.93,20.34-7.22a170.48,170.48,0,0,1,24.55.07c5.83.38,12.56-.78,17.93,2.05,2.9,2.22.28,6.73-2.29,8.69Z" transform="translate(387.67 0.44)"></path></g><g><path class="cls-29" d="M-159.8,675.27a67.25,67.25,0,0,1-14.58,1.05c-3.85,0-7.7.06-11.55-.14a48.43,48.43,0,0,1-12.64-2,18.88,18.88,0,0,1-4.9-2.34c.15.7.31,1.41.48,2.11.55,2.44,1.16,4.89,1.78,7.33.49,1.94,1,3.88,1.48,5.8.06.19.1.39.15.58.36,1.4.63,2.93.93,4.48a39.88,39.88,0,0,0,1.52,6.09,14.08,14.08,0,0,0,.65,1.55c1.38,2.85,4.47,4.5,7.21,5.72a29.11,29.11,0,0,0,19.62,1.79c4.69-1.34,11-3.8,12.45-9.1a.48.48,0,0,0,0-.17,1,1,0,0,0,.44-.5s0,0,0-.06a32.45,32.45,0,0,0,1.48-6.21c.25-1.61.42-3.26.55-4.9.19-2.1.33-4.19.55-6.21.08-.72.18-1.42.27-2.11.17-1.23.32-2.47.42-3.73,0-.45.07-.91.11-1.37A25.09,25.09,0,0,1-159.8,675.27Z" transform="translate(387.67 0.44)"></path><path class="cls-30" d="M-151.37,651.93c-.54-3.09-9.08-4.64-15.34-5.39h-.09c-.87-.1-1.77-.2-2.69-.27.58-1.26,1.18-2.51,1.79-3.75-.44,0-.9-.09-1.37-.12a67.93,67.93,0,0,0-7.55-.22,4.21,4.21,0,0,0-.71,0,3.49,3.49,0,0,0-.46,0,.24.24,0,0,0-.12,0c-.38,0-.75,0-1.11,0a.14.14,0,0,0-.09,0c-.63,0-1.24,0-1.86.09l-1.28.08c-.64.06-1.3.12-1.92.2-.45,0-.89.07-1.32.14.43,1.21.8,2.42,1.15,3.65a79,79,0,0,0-15.72,2.88c-2.78.84-5.48,2-5.44,3.7,0,2.12,4.65,3.28,8.06,4a87.11,87.11,0,0,0,15.7,1.62l.36,0h1.31c.58,0,1.18,0,1.77,0s1.4,0,2.12,0h.94a3.38,3.38,0,0,0,.45,0c.29,0,.56,0,.83,0a77.39,77.39,0,0,0,10.2-.74C-158.82,657.2-150.8,655.07-151.37,651.93Z" transform="translate(387.67 0.44)"></path><path class="cls-30" d="M-149.44,665.7c-.12,2.22-.26,4.54-1.33,6.48-1.65,3-5.13,4.37-8.42,4.9a88.38,88.38,0,0,1-13,1.31c-8.59,0-17.46.41-25.87-1.7-3-.77-6.9-1.85-8.18-5.19a8.51,8.51,0,0,1-.46-2.56c-.07-1.3,0-2.66-.08-3.82a83.67,83.67,0,0,0-.82-8.35c-.75-4.3.75-8.19,4.89-9.75a69.85,69.85,0,0,1,14.75-3.94c.8-.12,1.62-.24,2.46-.33.42,1.21.79,2.42,1.14,3.65a79.13,79.13,0,0,0-15.72,2.88c-2.78.84-5.48,2-5.44,3.7,0,2.12,4.65,3.28,8.06,4a86.21,86.21,0,0,0,15.7,1.62l.36,0h1.31c.58,0,1.18,0,1.78,0s1.4,0,2.11,0h.94l.44,0c.29,0,.56,0,.84,0a77.38,77.38,0,0,0,10.2-.73c4.94-.75,13-2.89,12.4-6s-9.09-4.64-15.35-5.39h-.08c-.87-.1-1.78-.2-2.7-.27.58-1.27,1.18-2.51,1.79-3.76a51.73,51.73,0,0,1,13.78,3.19C-146.56,648.65-149.08,659.31-149.44,665.7Z" transform="translate(387.67 0.44)"></path><path class="cls-21" d="M-163.76,658a77.38,77.38,0,0,1-10.2.73c-.28,0-.55,0-.84,0l-.44,0h-.94c-.71,0-1.41,0-2.11,0s-1.2,0-1.78,0h-.37l-.66,0h-.28l-.35,0a86.21,86.21,0,0,1-15.7-1.62c-3.41-.73-8-1.89-8.07-4,0-1.74,2.66-2.86,5.44-3.7a79.26,79.26,0,0,1,15.72-2.88c.43,0,.87-.08,1.32-.12s.63,0,1-.07.85-.05,1.28-.08l1,0,.64,0c.23,0,.45,0,.65,0h1.37c.42,0,.87,0,1.3,0,1.7,0,3.39,0,5,.17.46,0,.92.05,1.36.09.92.06,1.82.17,2.69.27h.09c6.26.75,14.8,2.3,15.35,5.39S-158.82,657.2-163.76,658Z" transform="translate(387.67 0.44)"></path><path class="cls-30" d="M-157.08,679.72a1,1,0,0,0-1.25-.72.91.91,0,0,0-.38.19,1.12,1.12,0,0,0-1.5.28c-1.19,1.61-.63,4.1-.62,6A36.32,36.32,0,0,1-162.19,696c-.26.84.78,1.75,1.53,1.2,2.31-1.68,2.25-4.54,2.66-7.15C-157.47,686.67-156.14,683.15-157.08,679.72Z" transform="translate(387.67 0.44)"></path><path class="cls-31" d="M-151.28,661.8a1.06,1.06,0,0,0-1.06-1,1.07,1.07,0,0,0-.57.18,1,1,0,0,0-1.25.73,1.09,1.09,0,0,0,0,.26c0,2.75-.42,5.48-.25,8.23a1.06,1.06,0,0,0,1.06,1,1,1,0,0,0,.89-.51C-150.8,668.09-151.25,664.76-151.28,661.8Z" transform="translate(387.67 0.44)"></path></g><path class="cls-32" d="M-163.64,606.83a.77.77,0,0,0-.34-.53,1.09,1.09,0,0,0-.39-.22,5.15,5.15,0,0,0-1-.17.09.09,0,0,0-.1,0,9.21,9.21,0,0,0-5.28,1.41,22.4,22.4,0,0,0-7.6,7.73c-.23-1.95-.48-3.89-.79-5.84-.3-2.15-.68-4.3-1.09-6.42-.05-.35-.12-.67-.19-1-.25-1.31-.52-2.63-.8-3.94.45-.34.87-.68,1.28-1,2.9-2.37,5.39-4.81,6.86-8.66.25-.69.47-1.39.65-2.1.49-2.1.49-4.45-2.2-4.3-3,.18-5.26,3.42-6.77,5.76l-.1.15a29,29,0,0,0-1.49,2.65c-.69-2.61-1.45-5.21-2.26-7.8-.62-2-1.3-4.07-2-6.08-.07-.24-.15-.47-.24-.7a.55.55,0,0,1,.17-.14c.8-.68,1.74-1.18,2.49-1.93a9.09,9.09,0,0,0,1.62-2.08,10.68,10.68,0,0,0,.67-1.19,23.74,23.74,0,0,0,1.82-6.87,15.83,15.83,0,0,0,.05-4.56c-.27-1.6-1.1-2.88-2.8-2.69-3.27.39-4.55,5.35-5.42,8a48.5,48.5,0,0,0-1.21,5,95.29,95.29,0,0,0-9.45-16.91c2.87-1.71,4.2-6.4,3.7-9.76a12.29,12.29,0,0,0-1.21-4,18.87,18.87,0,0,0-2.44-3.58,23.16,23.16,0,0,0-7.16-5.28.8.8,0,0,0-1.11.24.73.73,0,0,0-.11.59c.95,5.19,1.56,10.39,3,15a64.55,64.55,0,0,0-7.09-6.94,22.72,22.72,0,0,0-7.52-10.07,15.85,15.85,0,0,0-12.81-2.65.8.8,0,0,0-.53,1,.36.36,0,0,0,0,.11,11.65,11.65,0,0,0,2.05,3.14,11.07,11.07,0,0,0,1.26,1.21,14.94,14.94,0,0,0,1.33,1.18c1.86,1.38,3.87,2.68,5.73,3.8a21.91,21.91,0,0,0,3.32,1.75c1.11.58,2.32,1.05,3.5,1.59s2.19,1,3.26,1.52a13,13,0,0,1,3,2.11,64.84,64.84,0,0,1,5,5.58,15.73,15.73,0,0,0-4.25-1.84,12.55,12.55,0,0,0-4.43-.58,10.37,10.37,0,0,0-7.66,3.78.71.71,0,0,0-.08,1,.46.46,0,0,0,.17.14,40.68,40.68,0,0,0,9,2.89c3.58.63,7.35.83,10.35-1.32l.17.22a.41.41,0,0,0,.14.12,96.87,96.87,0,0,1,10,18.2,22.13,22.13,0,0,0-3.63-2.76,22.49,22.49,0,0,0-6-2.95,17.27,17.27,0,0,0-6.58-.8.91.91,0,0,0-.86,1V566a7.45,7.45,0,0,0,2.82,4.77,6.44,6.44,0,0,0,.7.57,21.21,21.21,0,0,0,4.5,2.42,12.81,12.81,0,0,0,2.11.63c2.88.66,6.14.82,8.43,2.78,3.63,3.21,2.84,9.77,4.89,13.93,0,.09.08.15.12.24l-.15-.27a25,25,0,0,0-11.57-10.81,12.72,12.72,0,0,0-3.8-1,1,1,0,0,0-1,.66c-.56,4.27,1.82,7.73,5.18,10.7.38.32.75.63,1.15.93a44.78,44.78,0,0,0,4,2.82l1.56,1c1.6,1,3.18,1.81,4.6,2.56l.26.13.82.41a.78.78,0,0,0,.25.07.57.57,0,0,0,.26,0,.37.37,0,0,0,.14.07q.45,2.18.87,4.35a2.5,2.5,0,0,0,.05.29c.44,2.32.83,4.62,1.16,6.94.22,1.41.4,2.81.56,4.23,0,.17,0,.36.07.53l-.29-.45c-.24-.34-.48-.68-.74-1-.37-.51-.78-1-1.22-1.52a20.44,20.44,0,0,0-4-3.5,13.74,13.74,0,0,0-4.36-2h0a9.73,9.73,0,0,0-3.27-.31.8.8,0,0,0-.68.72.55.55,0,0,0,.06.43c.55.85,1.13,1.73,1.76,2.64,2.3,3.31,5.17,6.73,8.8,8.81a11.23,11.23,0,0,0,1.47.74.25.25,0,0,0,.15.06,7.47,7.47,0,0,0,1.07.43l.06,0c.25.09.5.17.76.24a8.76,8.76,0,0,0,1,.25c.19,0,.31,1.44.37,3.12v0c.05,1,.09,2.06.1,3.05.06,1.52.06,2.8.07,3.1v.26a4.1,4.1,0,0,1,0,.5c0,.25,0,.53,0,.78a3.53,3.53,0,0,1,0,.46c0,1.21.05,2.4.05,3.62,0,.68,0,1.38,0,2.08s0,1.52,0,2.28,0,1.37-.05,2a4.52,4.52,0,0,1,0,.53c0,1.3-.08,2.58-.17,3.84a66.17,66.17,0,0,1-1.11,9.09h0c-.12.57-.24,1.13-.39,1.69a4.1,4.1,0,0,1-.1.48c-.1.43-.22.85-.31,1.3l.67,0h.37c.58,0,1.18,0,1.78,0v0c.13-4.19.49-8.39.75-12.6,0-.49.07-1,.08-1.5.05-.78.09-1.57.12-2.35s.07-1.62.09-2.42c0-.2,0-.41,0-.62V639c0-.44,0-2-.1-4.16,0-.56,0-1.14-.05-1.76v-.34c0-.9-.07-1.84-.1-2.78,0-.2,0-.4,0-.63,0-1.26-.09-2.54-.14-3.71s-.08-2.4-.12-3.36c-.08-1.6-.13-2.65-.17-2.65a11.86,11.86,0,0,0,1.21-.29,16.74,16.74,0,0,0,4-1.63,22.45,22.45,0,0,0,2.14-1.33c.27-.19.56-.41.83-.62a12,12,0,0,0,1.54-1.4c.2-.21.4-.43.58-.66a44.64,44.64,0,0,0,3.9-6.09A.9.9,0,0,0-163.64,606.83Z" transform="translate(387.67 0.44)"></path><path class="cls-33" d="M-97.72,576.34c-2.5-3.29-7.87-4.08-12.51-4.18A28.21,28.21,0,0,0-118,573.3c-2.37.6-4.45,1.55-6.93,2a66.07,66.07,0,0,0-7.21,1.67c5-3.2,10.49-7,10-11.78,0-.43-.69-.63-1.23-.46a27.78,27.78,0,0,0-10.13,5.56c-2.93,2.63-4.47,5.78-3.41,8.27l-.26.12c-.06,0-.1.07-.15.08a47.15,47.15,0,0,0-9,4.93,50.19,50.19,0,0,0-7.7,6.79c.7-1.45,1.26-3,1.72-4,1.75-4.07,3.66-8.13,4.57-12.15.12-.52-.39-.7-1-.5a12.87,12.87,0,0,0-6.2,4.52,16.93,16.93,0,0,0-2.94,6.21c-.8,3.47.67,6.65-.25,10-.6,2.2-2.12,4.18-3.7,6.22a30.12,30.12,0,0,0-3.46,5.15,9.34,9.34,0,0,0-.48,1.13c.13-.38.25-.74.37-1.13a55.66,55.66,0,0,0,2-8.74,27.74,27.74,0,0,0,.18-9,.55.55,0,0,0-.67-.41.57.57,0,0,0-.23.12c-4.11,2.71-6.14,7.28-6.66,11.78a27.37,27.37,0,0,0,.08,7.67,36.4,36.4,0,0,0,1,4.64,2.17,2.17,0,0,0,.07.24c.07.25.15.51.2.75a.63.63,0,0,0,.26.32.42.42,0,0,0,0,.12c-.48,1-.94,1.94-1.36,2.93-.53,1.15-1,2.32-1.52,3.48q-1.69,4-3.07,8.1c0,.12-.08.22-.12.34,0-.08,0-.17,0-.25a39,39,0,0,0-.41-4.32,24.34,24.34,0,0,0-.47-2.55c-.09-.33-.17-.65-.26-1l-.26-.87a10.76,10.76,0,0,0-1.58-3.27,6,6,0,0,0-1.64-1.64.31.31,0,0,0-.25,0,.63.63,0,0,0-.23.08,1.05,1.05,0,0,0-.52.77c-.16,1-.28,2-.35,3.07-.05.55-.06,1.09-.08,1.64,0,.87,0,1.75,0,2.61a.11.11,0,0,0,0,.08,27.63,27.63,0,0,0,.38,3.15,15.83,15.83,0,0,0,1.4,4.42,3.09,3.09,0,0,0,.24.44,1.32,1.32,0,0,0,.15.29l.2.35a9.34,9.34,0,0,0,1.48,1.72l.12.1a3.94,3.94,0,0,0,.45.36c-.14.46-.28.93-.4,1.4s-.32,1.17-.46,1.75c-.25.94-.47,1.88-.7,2.83-.17.75-.34,1.52-.51,2.3,0,.17-.07.36-.1.55-.27,1.28-.53,2.56-.73,3.85-.27,1.54-.51,3.07-.72,4.62-.19,1.37-.34,2.73-.48,4.11s-.22,2.53-.3,3.8h.24l.66,0h.38a115.81,115.81,0,0,1,1.51-12.6c.23-1.19.45-2.37.69-3.56,0-.09.05-.19.06-.29.17-.82.35-1.62.55-2.44,0-.12.05-.22.07-.34.49-2.12,1-4.2,1.65-6.28a11.63,11.63,0,0,0,3.86,0,20.83,20.83,0,0,0,3-.71,12.86,12.86,0,0,0,1.72-.69c1.83-.9,3.4-2.18,5.24-3.29a.79.79,0,0,0,.28-1.09.7.7,0,0,0-.13-.17c-1.36-1.47-3.58-1.86-5.95-1.43a12.42,12.42,0,0,0-2,.53,12.29,12.29,0,0,0-2,.9,13.71,13.71,0,0,0-2.73,1.86c.31-1,.65-1.9,1-2.83.73-2.08,1.55-4.15,2.42-6.18s1.65-3.82,2.57-5.68l.29-.63.29,0a29,29,0,0,0,7-1.23,17.12,17.12,0,0,0,2.6-1.12,9.69,9.69,0,0,0,3.22-2.42,1.62,1.62,0,0,0-.24-2.2c-1.55-1.73-4.62-1.15-6.84-.45-.54.17-1.12.36-1.7.6-.29.12-.58.24-.87.38.17-.31.36-.6.53-.9a98.19,98.19,0,0,1,7.5-11.14c.87.16,1.62.62,2.47.79a11.82,11.82,0,0,0,3.14.12,54,54,0,0,0,5.36-.9,22.31,22.31,0,0,0,3.12-.8c1-.41,1.72-1,1.38-2.27a3.75,3.75,0,0,0-2.75-2.34,12.31,12.31,0,0,0-4-.36,17.12,17.12,0,0,0-4.31.77,45.69,45.69,0,0,1,7-5.9A44.45,44.45,0,0,1-137,580a6.23,6.23,0,0,0,2.73,3,15.57,15.57,0,0,0,3.9,1.71c4,1.06,8.34,0,12.43-1.3a.62.62,0,0,0,.47-.74.62.62,0,0,0-.24-.37,24.06,24.06,0,0,0-11.51-4.77,76,76,0,0,1,9.24-1.62c7.11,2.1,14.3,4,21.93,1.4a.58.58,0,0,0,.37-.73A.35.35,0,0,0-97.72,576.34Z" transform="translate(387.67 0.44)"></path><path class="cls-34" d="M-172.66,613c-2.12-.41-4.09.94-5.66,3a17,17,0,0,0-2.25,4.12,19.27,19.27,0,0,0-.79,2.44v0l-.06.24c-.34-1.13-.68-2.25-1-3.38-.05-.15-.08-.29-.13-.44q-1.71-5.4-3.77-10.64c-.2-.58-.43-1.16-.66-1.73.23-.34.47-.7.73-1h0a16.18,16.18,0,0,0,3.05-7.15,8.13,8.13,0,0,0,.12-1.21,3.25,3.25,0,0,0,0-.44c.1-1.64-.05-4.88-1.56-5.75,0,0,0,0,0,0a1.58,1.58,0,0,0-.82-.22,2.38,2.38,0,0,0-.53.05c-1.73.37-2.59,2.44-3.13,4.43-.16.6-.29,1.16-.41,1.69s-.2.92-.29,1.41-.16.89-.22,1.37a83.39,83.39,0,0,0-4.64-8.25c-1-1.55-2-3-3.17-4.49.34-.82.95-1.45,1.27-2.3a8.35,8.35,0,0,0,.48-3.29c0-.39-.05-.8-.1-1.21a21.73,21.73,0,0,0-1.43-5.13c-.09-.22-.17-.46-.29-.73a13.57,13.57,0,0,0-1.82-3.21c-1-1.3-2.34-2.22-3.62-1.64a2.1,2.1,0,0,0-1.17,1.79,6.38,6.38,0,0,0,0,1.69,34.36,34.36,0,0,0,.92,4.4c.36,1.4.77,3,1.26,4.45a45.73,45.73,0,0,0-15.67-10.55,4.92,4.92,0,0,0-.24-4.09,10.79,10.79,0,0,0-3.15-3.88,15.76,15.76,0,0,0-7.86-2.9,25.35,25.35,0,0,0-8.46.65c-.72.17-.84.8-.34,1.09,3.82,2.36,7.83,4.88,11.88,7a50.26,50.26,0,0,0-9.73-.46,30.18,30.18,0,0,0-11.6-1.81,22.72,22.72,0,0,0-11.34,3.53.56.56,0,0,0-.23.77.47.47,0,0,0,.13.15c3.36,2.58,8.87,2,13.42,1.47a60.21,60.21,0,0,0,7.6-1.65c2.32-.57,4.48-1.32,7-1.18a45.28,45.28,0,0,1,7.24,1,14.72,14.72,0,0,0-7.81,2.65,7.12,7.12,0,0,0-3.15,6,.7.7,0,0,0,.76.63l.11,0a57.27,57.27,0,0,0,8.2-2.66c2.8-1.18,5.63-2.56,6.6-5.11l.25.1a1,1,0,0,1,.18,0,44.69,44.69,0,0,1,16.38,11.44,20.93,20.93,0,0,0-3.9-1.57c-3.95-1.28-7.9-1.22-11,.48a.65.65,0,0,0-.24.89l.09.12a8.58,8.58,0,0,0,4,2.73,23.09,23.09,0,0,0,5.06,1.1c2.92.4,6.19-.76,9.23.93,2,1.1,3.36,3.29,4.5,5.59a50.17,50.17,0,0,0,3.44,6.63,23.51,23.51,0,0,0-7.31-6.62,12.78,12.78,0,0,0-7.83-1.94.6.6,0,0,0-.54.65s0,.06,0,.08c.94,3.59,3.59,6,6.88,8.3a76.07,76.07,0,0,0,9.07,5.1h0l1.2.57a.55.55,0,0,0,.22.1l.7.32a.64.64,0,0,0,.41,0l.12.05c1.46,3.68,2.8,7.43,4,11.22.46,1.38.9,2.78,1.33,4.17a24,24,0,0,0-2.25-2.59,13.92,13.92,0,0,0-1.36-1.3c-.26-.24-.51-.44-.77-.64a13,13,0,0,0-5.23-2.73,5.84,5.84,0,0,0-1.25-.14,4.42,4.42,0,0,0-1.36.1c-.39.09-.51.78-.22,1.16s.35.48.54.72a57.62,57.62,0,0,0,4.37,5.25s0,0,0,0a26.73,26.73,0,0,0,3.48,3.07,11.65,11.65,0,0,0,5.54,2.34c.2.76.41,1.55.62,2.32.08.27.15.54.22.81.37,1.5.75,3,1.09,4.52.14.55.25,1.08.37,1.62s.31,1.33.45,2c.2.93.41,1.86.58,2.8a1,1,0,0,1,0,.29c.15.69.29,1.37.41,2,.1.5.2,1,.27,1.5q1,5.43,1.7,10.91c.09.58.18,1.16.24,1.76a3.39,3.39,0,0,0,.45,0c.29,0,.56,0,.83,0-.07-.53-.12-1-.2-1.55-.1-.85-.2-1.7-.34-2.56-.39-2.86-.85-5.73-1.38-8.56-.22-1.28-.46-2.57-.73-3.83-.17-.94-.36-1.85-.56-2.77,0-.1,0-.18-.05-.27-.19-.87-.38-1.72-.57-2.57l-.51-2.15-.66-2.73c-.07-.27-.14-.53-.22-.8a2,2,0,0,0-.09-.33,2,2,0,0,0-.12-.46c-.24-1-.51-2-.78-3a9.27,9.27,0,0,0,1.09-.55,8.93,8.93,0,0,0,1.43-1,13.26,13.26,0,0,0,1.91-1.91,13.81,13.81,0,0,0,.89-1.13,11.51,11.51,0,0,0,1.36-2.57,24.18,24.18,0,0,0,.75-2.32c.29-1.08.55-2.2.84-3.35A1.09,1.09,0,0,0-172.66,613Z" transform="translate(387.67 0.44)"></path><path class="cls-33" d="M-177.06,629.85a2,2,0,0,0-.43.08,5.79,5.79,0,0,0-1.52.51l-.27.12s-.05,0-.07,0a10.14,10.14,0,0,0-1.05.64,5.92,5.92,0,0,0-.89.67,9.9,9.9,0,0,0-1.26,1.16,18.22,18.22,0,0,0-3.4,4.76,85.32,85.32,0,0,0-3.88-8.27c.75-.82,1.46-1.64,2.1-2.46a15.33,15.33,0,0,0,.95-1.33,11.19,11.19,0,0,0,1.54-3.5,9.6,9.6,0,0,0,.2-1.07,3.86,3.86,0,0,0,0-1c0-.83-.36-1.5-1.36-1.3l-.17,0a2.41,2.41,0,0,0-.45.16,7.69,7.69,0,0,0-3.29,3.5h0c-.29.51-.52,1-.73,1.45-.27.6-.56,1.26-.82,1.93a75.71,75.71,0,0,0-4.47-6.65c.48-.65,1.13-1.23,1.6-1.89l.06-.09a8.5,8.5,0,0,0,1-2c.05-.13.11-.26.15-.39a14,14,0,0,0,.6-4.42c0-.2,0-.47,0-.78-.1-1.3-.54-3.14-1.82-3.07a1.82,1.82,0,0,0-.79.24c-2.06,1.18-2.35,4.59-2.69,6.29a31.25,31.25,0,0,0-.39,3.21,31.07,31.07,0,0,0-7.54-6.79,7.51,7.51,0,0,0,.27-7.32c-1.69-3.2-5.67-4.2-8.7-3.73a.69.69,0,0,0-.48.86.47.47,0,0,0,.06.15,65.64,65.64,0,0,0,4.77,8.08,32.47,32.47,0,0,0-5-1.42c-3.19-3.61-7.79-5.9-12.06-3.3a.75.75,0,0,0-.18.85c1.3,3.34,4.19,4.18,6.56,4.67a12.46,12.46,0,0,0,4.13-.14,9.52,9.52,0,0,1,3.83-.22,28.89,28.89,0,0,1,3.62,1.3,8.06,8.06,0,0,0-4.78,2.13,10.2,10.2,0,0,0-2.88,5.46c-.08.43.07.73.27.68a14.55,14.55,0,0,0,4.49-2.11,15.81,15.81,0,0,0,5.18-4.95l.14.07a.11.11,0,0,0,.08,0A31.26,31.26,0,0,1-199,618a12.9,12.9,0,0,0-2.59-.51,10.82,10.82,0,0,0-7.92,2,1,1,0,0,0-.46.84c.29,1.77,2.56,1.69,5.17,1.47,2.18-.23,5.15-1.66,7.26-1.11,2.8.73,2.85,4.62,4.74,6.22a12.54,12.54,0,0,0-11.55-2.12c-.29.1-.61.41-.61.65,0,2.46,1.82,3.51,4.36,4.13a43.67,43.67,0,0,0,8.46.78.55.55,0,0,0,.18,0h.62a.77.77,0,0,0,.36-.09h.1a81.64,81.64,0,0,1,3.68,7.8A11.84,11.84,0,0,0-197.94,637c-.35.15-.52.58-.3.72,2.81,1.75,6.9,3.92,12.09,3.12.24.65.46,1.28.66,1.93.43,1.21.8,2.42,1.14,3.64a82.15,82.15,0,0,1,2.61,12.21l.36,0h.27l.67,0c-.07-.6-.15-1.2-.26-1.79s-.22-1.37-.34-2c-.22-1.32-.49-2.63-.8-3.92-.34-1.56-.75-3.09-1.19-4.63-.34-1.22-.73-2.45-1.14-3.66-.29-.85-.58-1.72-.9-2.58a14.85,14.85,0,0,0,2.67-1.55,12.85,12.85,0,0,0,1.25-1c.49-.41,1-.86,1.43-1.32a3.63,3.63,0,0,0,.41-.46,4.31,4.31,0,0,0,.39-.46,10.72,10.72,0,0,0,.62-.88c.29-.48.56-1,.8-1.47a2.56,2.56,0,0,1,.11-.24c.33-.71.62-1.45,1-2.2C-176.24,630.07-176.58,629.8-177.06,629.85Z" transform="translate(387.67 0.44)"></path><path class="cls-35" d="M-106.59,600.41c-2.23-3-6.19-3.12-9.5-2.74a16.11,16.11,0,0,0-5.35,1.84,27.68,27.68,0,0,1-4.64,2.35c-1.67.52-3.34,1.08-5,1.71,3.16-3,6.4-7.11,5.22-11.75a.66.66,0,0,0-.83-.43.45.45,0,0,0-.12.06,18.45,18.45,0,0,0-6.35,5.62c-1.69,2.51-2.4,5.36-1.24,7.85l-.19.08-.1.07a54.71,54.71,0,0,0-12.41,7.66,24.75,24.75,0,0,0,1.26-3.07,29.73,29.73,0,0,0,2.64-10,.61.61,0,0,0-.59-.63.85.85,0,0,0-.23,0,7.33,7.33,0,0,0-4.4,2.88,11.14,11.14,0,0,0-2.08,4.73c-.61,2.74.74,5.88-.05,8.46a9,9,0,0,1-3.24,4.07c-1.33,1.28-2.88,2.46-3.51,4,1.82-4.11,3-9.89,2.42-14.29a3.07,3.07,0,0,0-.07-.53.61.61,0,0,0-.71-.49h-.06a8,8,0,0,0-2.38,1.25,10.61,10.61,0,0,0-2.6,3.31,12.91,12.91,0,0,0-1.07,3.5,18.1,18.1,0,0,0-.1,5.35,24.37,24.37,0,0,0,1,4.79,1.18,1.18,0,0,0,.07.2c.07.21.12.43.19.63a.57.57,0,0,0,.24.31.27.27,0,0,0,0,.12,103,103,0,0,0-6,9.79,23,23,0,0,0-.56-5.43c-.07-.32-.16-.64-.26-.95a11.34,11.34,0,0,0-2.3-4.5,6.82,6.82,0,0,0-.82-.79.65.65,0,0,0-.88.21.61.61,0,0,0-.07.17c-.1.43-.19.87-.26,1.31a21.57,21.57,0,0,0-.17,6c0,.23,0,.43.07.63a11.23,11.23,0,0,0,3.46,6.8c-.31.62-.63,1.25-.92,1.88-.61,1.25-1.21,2.51-1.79,3.79-1.28,2.76-2.49,5.57-3.65,8.39l-1,2.37c-.24.58-.46,1.17-.7,1.75h.94a3.23,3.23,0,0,0,.44,0c.2-.52.43-1,.63-1.56,1.47-3.65,3-7.28,4.67-10.86.58-1.26,1.18-2.51,1.79-3.75.29-.61.6-1.23.9-1.84a18.09,18.09,0,0,0,6.59,1.19c2.49,0,4.45-.73,6.68-1.24.46-.1.49-.55.19-.9-2.46-2.92-8.32-3.31-12-1.78a98.11,98.11,0,0,1,6.17-10.08c3.12.58,6,1.22,8.94.7,1.4-.29,4.28-.6,2.55-2.76-1.38-1.79-4.07-2.2-6.07-2.25a13.63,13.63,0,0,0-2.3.1c1.08-1.35,2.24-2.64,3.38-3.92s2.35-2.54,3.67-3.65c.75.38,1.4,1,2.13,1.35a11.69,11.69,0,0,0,2.64.94,30.87,30.87,0,0,0,4.49.61c1.27,0,4.34.61,3.6-1.79s-3.8-3.41-5.71-3.82a13.48,13.48,0,0,0-3.53-.34,60.32,60.32,0,0,1,5.39-3.75,64.32,64.32,0,0,1,5.82-3c.94,2.36,3.77,4.11,5.7,4.79,3.17,1.11,6.22-.06,8.9-1.68a.71.71,0,0,0,.08-1l-.12-.11a19.82,19.82,0,0,0-9.15-4.16c2.11-.73,4.24-1.38,6.41-1.94,5.47,1.57,10.79,2.61,15.7-.83A.71.71,0,0,0-106.59,600.41Z" transform="translate(387.67 0.44)"></path><path class="cls-35" d="M-167.41,549.47c5.47-4.86,10.57-9.76,12.57-17.12a.62.62,0,0,0-.43-.74h-.12c-4.06,0-7.79,4-10.21,7.89a25.78,25.78,0,0,0-3,7.09c-.7,2.27-.92,4.49-1.91,6.72s-1.78,4.42-2.58,6.65a27.87,27.87,0,0,0-.6-8.44c-.61-2.57-1.82-4.74-4-5.74-.39-.19-.87.2-1,.75a27.32,27.32,0,0,0-.64,10.69c.53,3.56,2.07,6.53,4.66,7.33l-.09.26a.38.38,0,0,0,0,.15,156.48,156.48,0,0,0-4.68,19.1c-.22-1.55-.64-3.09-.88-4.09a34.07,34.07,0,0,0-2.94-8.36,19.2,19.2,0,0,0-1.68-2.69c-.29-.38-.79-.2-1,.25a11.17,11.17,0,0,0-1.38,6.45c0,.29,0,.56.06.83a18.57,18.57,0,0,0,1.35,4.86,10.27,10.27,0,0,0,.65,1.23c1.12,1.81,2.73,3.26,3.75,5.15a7.35,7.35,0,0,1,.73,1.76c1.13,4.09-1.45,9.38-1.12,13.72,0,.12,0,.24,0,.36,0-.22-.05-.42-.08-.64a41,41,0,0,0-1.14-5.63,34.2,34.2,0,0,0-2.39-6.45,17,17,0,0,0-2.9-4.23.56.56,0,0,0-.79,0,.57.57,0,0,0-.11.16,12.86,12.86,0,0,0-1.43,7.58,19.55,19.55,0,0,0,.87,4.07c.08.27.17.55.27.82a28.49,28.49,0,0,0,3.31,6.39v0a39.57,39.57,0,0,0,2.86,3.82,1.46,1.46,0,0,0,.16.19c.17.19.34.39.51.56a.46.46,0,0,0,.34.19l.1.1c0,.46,0,.94-.07,1.4-.1,2.37-.17,4.76-.2,7.14,0,.12,0,.26,0,.38,0,2.2,0,4.4,0,6.6a31.47,31.47,0,0,0-2.39-4.79,16.41,16.41,0,0,0-1.5-2.2,5.69,5.69,0,0,0-.6-.7,8.63,8.63,0,0,0-4.7-3.07c-.2,0-.39.12-.53.34a1.06,1.06,0,0,0-.1.7,40.08,40.08,0,0,0,2.2,6.38.06.06,0,0,0,0,.05,22.87,22.87,0,0,0,2.52,4.4,10.86,10.86,0,0,0,5.13,4.09c0,.63,0,1.25,0,1.88,0,1.8.09,3.61.16,5.42,0,1.31.08,2.62.15,3.92s.1,2.54.17,3.8c.07,1.57.15,3.12.24,4.69.15,2.57.31,5.15.46,7.72h.27l.67,0h.34l-.21-3.48h0c-.1-1.49-.18-2.95-.25-4.44s-.17-3.07-.24-4.58c-.07-1.28-.12-2.54-.17-3.8-.07-1.6-.14-3.19-.19-4.8,0-1.87-.1-3.75-.14-5.62,0-.46,0-.9,0-1.37.24,0,.48-.07.7-.12a6.36,6.36,0,0,0,1-.27l.19,0c.13,0,.25-.1.37-.15a11.13,11.13,0,0,0,1.5-.65,16.32,16.32,0,0,0,2.19-1.32.26.26,0,0,0,.13-.08l.22-.15a11,11,0,0,0,1.74-1.59,48.75,48.75,0,0,0,3.5-4.59.84.84,0,0,0-.14-1.19l-.13-.09a3.66,3.66,0,0,0-.8-.3,4.16,4.16,0,0,0-1.31-.19,5.78,5.78,0,0,0-1.37.17,9.87,9.87,0,0,0-2.72,1.14,14.62,14.62,0,0,0-1.56,1.11,14.48,14.48,0,0,0-1.41,1.3v0a12.22,12.22,0,0,0-1.79,2.2,3.85,3.85,0,0,0-.39.6v-3.77a.11.11,0,0,1,0-.08c0-.85,0-1.72,0-2.59,0-.55,0-1.09,0-1.66,0-1.62.06-3.24.13-4.86,0-1,.09-2.1.14-3.15l.26-.14c.54-.3,1.07-.6,1.6-.88a17.89,17.89,0,0,0,6.13-5.14c1.09-1.46,3.28-4.5.69-5.49-2.14-.81-4.68,1-6.35,2.6a15.82,15.82,0,0,0-1.57,1.6c-.12.1-.2.22-.3.32,0-.44.06-.89.12-1.33.11-1.65.29-3.31.47-5,.28-2.58.62-5.13,1-7.69.83-.29,1.7-.27,2.52-.55a9.88,9.88,0,0,0,2.76-1.51,14.86,14.86,0,0,0,1.22-1c1-.89,1.89-1.91,2.81-2.92a14.25,14.25,0,0,0,2.13-2.81c.6-1.09.78-2.22-.26-3-2-1.5-5.3.87-7,2.34a24.3,24.3,0,0,0-3.09,3.08,161.87,161.87,0,0,1,4.33-17.36c2.36.94,5.8-.73,7.78-2.4,3.27-2.78,4.91-7.21,5.83-11.34a.59.59,0,0,0-.39-.76.64.64,0,0,0-.43,0,26.71,26.71,0,0,0-10.2,7c.55-1.44,1.15-2.84,1.71-4.25Z" transform="translate(387.67 0.44)"></path></g><g><path class="cls-36" d="M430.86,209.67c1.28,1,10.7,23,10.7,23l-19.69,1.76Z" transform="translate(387.67 0.44)"></path><path class="cls-37" d="M433.55,230.08H395.68l9.76-40.83h37.87Z" transform="translate(387.67 0.44)"></path><rect class="cls-38" x="332.76" y="161.04" width="17.44" height="68.95" transform="matrix(0.99, -0.13, 0.13, 0.99, 365.3, 46.13)"></rect><rect class="cls-39" x="340.13" y="163.58" width="3.6" height="63.78" transform="translate(365.32 46.16) rotate(-7.41)"></rect><rect class="cls-40" x="353.45" y="163.21" width="17.44" height="68.95" transform="translate(354.31 80.63) rotate(-12.08)"></rect><rect class="cls-37" x="354.61" y="191.31" width="17.44" height="10.49" transform="translate(354.58 80.85) rotate(-12.08)"></rect><rect class="cls-18" x="371.24" y="163.66" width="13.21" height="68.96" transform="translate(354.61 83.77) rotate(-12.06)"></rect><rect class="cls-41" x="678.98" y="229.66" width="158.08" height="19.17"></rect><g><rect class="cls-42" x="701.18" y="180.05" width="18.31" height="49.62"></rect><rect class="cls-43" x="702.46" y="196.99" width="15.73" height="2.87"></rect><rect class="cls-43" x="702.46" y="201.9" width="15.73" height="5.97"></rect></g><path class="cls-44" d="M423.78,213.85c-2.42.82-4.79,2.12-7.34,2-3.4-.13-6.14-2.67-8.88-4.7a17.67,17.67,0,0,0-2-1.25l-3.36,14h26.5l2.65-11A19.58,19.58,0,0,0,423.78,213.85Z" transform="translate(387.67 0.44)"></path><g><path class="cls-23" d="M414.28,202.94c2.3.68,4.08,2.58,6.37,3.33,2.58.86,5.4.12,8-.71a31.58,31.58,0,0,1,4.79-1.27l2.12-8.91h-26.5l-2,8.46.14-.05C409.44,202.9,412,202.25,414.28,202.94Z" transform="translate(387.67 0.44)"></path><path class="cls-45" d="M433.43,204.29a31.77,31.77,0,0,0-4.78,1.27c-2.6.83-5.41,1.57-8,.72-2.29-.76-4.07-2.66-6.37-3.34s-4.84,0-7.1.85l-.14.05-1.46,6.09a16.92,16.92,0,0,1,2,1.25l.41.31a37.77,37.77,0,0,1,4.32-1.18c4.46-.85,8.24.38,12.58,1a58.33,58.33,0,0,1,6.25,1.58h.25Z" transform="translate(387.67 0.44)"></path><path class="cls-46" d="M412.29,210.31a34.53,34.53,0,0,0-4.32,1.18c2.6,2,5.24,4.26,8.47,4.38,2.55.1,4.92-1.2,7.34-2a19.47,19.47,0,0,1,7.34-.94,56.09,56.09,0,0,0-6.25-1.59C420.53,210.69,416.75,209.46,412.29,210.31Z" transform="translate(387.67 0.44)"></path></g></g></svg> 